G04 #@! TF.GenerationSoftware,KiCad,Pcbnew,6.0.9-8da3e8f707~116~ubuntu20.04.1*
G04 #@! TF.CreationDate,2022-12-17T22:04:31+01:00*
G04 #@! TF.ProjectId,pcm_pmod,70636d5f-706d-46f6-942e-6b696361645f,rev?*
G04 #@! TF.SameCoordinates,Original*
G04 #@! TF.FileFunction,Legend,Top*
G04 #@! TF.FilePolarity,Positive*
%FSLAX46Y46*%
G04 Gerber Fmt 4.6, Leading zero omitted, Abs format (unit mm)*
G04 Created by KiCad (PCBNEW 6.0.9-8da3e8f707~116~ubuntu20.04.1) date 2022-12-17 22:04:31*
%MOMM*%
%LPD*%
G01*
G04 APERTURE LIST*
G04 Aperture macros list*
%AMRoundRect*
0 Rectangle with rounded corners*
0 $1 Rounding radius*
0 $2 $3 $4 $5 $6 $7 $8 $9 X,Y pos of 4 corners*
0 Add a 4 corners polygon primitive as box body*
4,1,4,$2,$3,$4,$5,$6,$7,$8,$9,$2,$3,0*
0 Add four circle primitives for the rounded corners*
1,1,$1+$1,$2,$3*
1,1,$1+$1,$4,$5*
1,1,$1+$1,$6,$7*
1,1,$1+$1,$8,$9*
0 Add four rect primitives between the rounded corners*
20,1,$1+$1,$2,$3,$4,$5,0*
20,1,$1+$1,$4,$5,$6,$7,0*
20,1,$1+$1,$6,$7,$8,$9,0*
20,1,$1+$1,$8,$9,$2,$3,0*%
G04 Aperture macros list end*
%ADD10C,0.150000*%
%ADD11C,0.120000*%
%ADD12RoundRect,0.237500X-0.237500X0.250000X-0.237500X-0.250000X0.237500X-0.250000X0.237500X0.250000X0*%
%ADD13RoundRect,0.237500X0.237500X-0.250000X0.237500X0.250000X-0.237500X0.250000X-0.237500X-0.250000X0*%
%ADD14C,1.500000*%
%ADD15R,1.200000X2.500000*%
%ADD16R,1.700000X1.700000*%
%ADD17C,1.700000*%
%ADD18RoundRect,0.237500X-0.300000X-0.237500X0.300000X-0.237500X0.300000X0.237500X-0.300000X0.237500X0*%
%ADD19O,1.700000X1.700000*%
G04 APERTURE END LIST*
D10*
X103957380Y-139279047D02*
X103957380Y-139755238D01*
X102957380Y-139755238D01*
X103957380Y-138945714D02*
X103290714Y-138945714D01*
X102957380Y-138945714D02*
X103005000Y-138993333D01*
X103052619Y-138945714D01*
X103005000Y-138898095D01*
X102957380Y-138945714D01*
X103052619Y-138945714D01*
X103290714Y-138469523D02*
X103957380Y-138469523D01*
X103385952Y-138469523D02*
X103338333Y-138421904D01*
X103290714Y-138326666D01*
X103290714Y-138183809D01*
X103338333Y-138088571D01*
X103433571Y-138040952D01*
X103957380Y-138040952D01*
X103909761Y-137183809D02*
X103957380Y-137279047D01*
X103957380Y-137469523D01*
X103909761Y-137564761D01*
X103814523Y-137612380D01*
X103433571Y-137612380D01*
X103338333Y-137564761D01*
X103290714Y-137469523D01*
X103290714Y-137279047D01*
X103338333Y-137183809D01*
X103433571Y-137136190D01*
X103528809Y-137136190D01*
X103624047Y-137612380D01*
X103576428Y-136707619D02*
X103576428Y-135945714D01*
X103957380Y-135469523D02*
X102957380Y-135469523D01*
X103290714Y-134993333D02*
X103957380Y-134993333D01*
X103385952Y-134993333D02*
X103338333Y-134945714D01*
X103290714Y-134850476D01*
X103290714Y-134707619D01*
X103338333Y-134612380D01*
X103433571Y-134564761D01*
X103957380Y-134564761D01*
X125039523Y-141390714D02*
X125039523Y-142200238D01*
X124991904Y-142295476D01*
X124944285Y-142343095D01*
X124849047Y-142390714D01*
X124706190Y-142390714D01*
X124610952Y-142343095D01*
X125039523Y-142009761D02*
X124944285Y-142057380D01*
X124753809Y-142057380D01*
X124658571Y-142009761D01*
X124610952Y-141962142D01*
X124563333Y-141866904D01*
X124563333Y-141581190D01*
X124610952Y-141485952D01*
X124658571Y-141438333D01*
X124753809Y-141390714D01*
X124944285Y-141390714D01*
X125039523Y-141438333D01*
X125515714Y-141390714D02*
X125515714Y-142057380D01*
X125515714Y-141485952D02*
X125563333Y-141438333D01*
X125658571Y-141390714D01*
X125801428Y-141390714D01*
X125896666Y-141438333D01*
X125944285Y-141533571D01*
X125944285Y-142057380D01*
X126849047Y-142057380D02*
X126849047Y-141057380D01*
X126849047Y-142009761D02*
X126753809Y-142057380D01*
X126563333Y-142057380D01*
X126468095Y-142009761D01*
X126420476Y-141962142D01*
X126372857Y-141866904D01*
X126372857Y-141581190D01*
X126420476Y-141485952D01*
X126468095Y-141438333D01*
X126563333Y-141390714D01*
X126753809Y-141390714D01*
X126849047Y-141438333D01*
X111276190Y-114582380D02*
X111276190Y-113582380D01*
X111752380Y-114582380D02*
X111752380Y-113582380D01*
X112323809Y-114582380D01*
X112323809Y-113582380D01*
X112800000Y-114582380D02*
X112800000Y-113582380D01*
X113133333Y-114296666D01*
X113466666Y-113582380D01*
X113466666Y-114582380D01*
X113942857Y-114582380D02*
X113942857Y-113582380D01*
X114323809Y-113582380D01*
X114419047Y-113630000D01*
X114466666Y-113677619D01*
X114514285Y-113772857D01*
X114514285Y-113915714D01*
X114466666Y-114010952D01*
X114419047Y-114058571D01*
X114323809Y-114106190D01*
X113942857Y-114106190D01*
X115371428Y-113915714D02*
X115371428Y-114582380D01*
X115133333Y-113534761D02*
X114895238Y-114249047D01*
X115514285Y-114249047D01*
X116323809Y-113915714D02*
X116323809Y-114582380D01*
X116085714Y-113534761D02*
X115847619Y-114249047D01*
X116466666Y-114249047D01*
X117371428Y-114582380D02*
X116800000Y-114582380D01*
X117085714Y-114582380D02*
X117085714Y-113582380D01*
X116990476Y-113725238D01*
X116895238Y-113820476D01*
X116800000Y-113868095D01*
X113300000Y-116192380D02*
X113300000Y-115192380D01*
X113633333Y-115906666D01*
X113966666Y-115192380D01*
X113966666Y-116192380D01*
X114442857Y-116192380D02*
X114442857Y-115525714D01*
X114442857Y-115192380D02*
X114395238Y-115240000D01*
X114442857Y-115287619D01*
X114490476Y-115240000D01*
X114442857Y-115192380D01*
X114442857Y-115287619D01*
X115347619Y-116144761D02*
X115252380Y-116192380D01*
X115061904Y-116192380D01*
X114966666Y-116144761D01*
X114919047Y-116097142D01*
X114871428Y-116001904D01*
X114871428Y-115716190D01*
X114919047Y-115620952D01*
X114966666Y-115573333D01*
X115061904Y-115525714D01*
X115252380Y-115525714D01*
X115347619Y-115573333D01*
X124444285Y-132786428D02*
X125206190Y-132786428D01*
X124825238Y-133167380D02*
X124825238Y-132405476D01*
X126158571Y-132167380D02*
X125682380Y-132167380D01*
X125634761Y-132643571D01*
X125682380Y-132595952D01*
X125777619Y-132548333D01*
X126015714Y-132548333D01*
X126110952Y-132595952D01*
X126158571Y-132643571D01*
X126206190Y-132738809D01*
X126206190Y-132976904D01*
X126158571Y-133072142D01*
X126110952Y-133119761D01*
X126015714Y-133167380D01*
X125777619Y-133167380D01*
X125682380Y-133119761D01*
X125634761Y-133072142D01*
X126491904Y-132167380D02*
X126825238Y-133167380D01*
X127158571Y-132167380D01*
X106497380Y-69381666D02*
X106021190Y-69715000D01*
X106497380Y-69953095D02*
X105497380Y-69953095D01*
X105497380Y-69572142D01*
X105545000Y-69476904D01*
X105592619Y-69429285D01*
X105687857Y-69381666D01*
X105830714Y-69381666D01*
X105925952Y-69429285D01*
X105973571Y-69476904D01*
X106021190Y-69572142D01*
X106021190Y-69953095D01*
X105830714Y-68524523D02*
X106497380Y-68524523D01*
X105449761Y-68762619D02*
X106164047Y-69000714D01*
X106164047Y-68381666D01*
X101417380Y-69381666D02*
X100941190Y-69715000D01*
X101417380Y-69953095D02*
X100417380Y-69953095D01*
X100417380Y-69572142D01*
X100465000Y-69476904D01*
X100512619Y-69429285D01*
X100607857Y-69381666D01*
X100750714Y-69381666D01*
X100845952Y-69429285D01*
X100893571Y-69476904D01*
X100941190Y-69572142D01*
X100941190Y-69953095D01*
X100417380Y-69048333D02*
X100417380Y-68429285D01*
X100798333Y-68762619D01*
X100798333Y-68619761D01*
X100845952Y-68524523D01*
X100893571Y-68476904D01*
X100988809Y-68429285D01*
X101226904Y-68429285D01*
X101322142Y-68476904D01*
X101369761Y-68524523D01*
X101417380Y-68619761D01*
X101417380Y-68905476D01*
X101369761Y-69000714D01*
X101322142Y-69048333D01*
X103957380Y-69381666D02*
X103481190Y-69715000D01*
X103957380Y-69953095D02*
X102957380Y-69953095D01*
X102957380Y-69572142D01*
X103005000Y-69476904D01*
X103052619Y-69429285D01*
X103147857Y-69381666D01*
X103290714Y-69381666D01*
X103385952Y-69429285D01*
X103433571Y-69476904D01*
X103481190Y-69572142D01*
X103481190Y-69953095D01*
X103052619Y-69000714D02*
X103005000Y-68953095D01*
X102957380Y-68857857D01*
X102957380Y-68619761D01*
X103005000Y-68524523D01*
X103052619Y-68476904D01*
X103147857Y-68429285D01*
X103243095Y-68429285D01*
X103385952Y-68476904D01*
X103957380Y-69048333D01*
X103957380Y-68429285D01*
X111172666Y-130516380D02*
X111172666Y-131230666D01*
X111125047Y-131373523D01*
X111029809Y-131468761D01*
X110886952Y-131516380D01*
X110791714Y-131516380D01*
X111553619Y-130516380D02*
X112172666Y-130516380D01*
X111839333Y-130897333D01*
X111982190Y-130897333D01*
X112077428Y-130944952D01*
X112125047Y-130992571D01*
X112172666Y-131087809D01*
X112172666Y-131325904D01*
X112125047Y-131421142D01*
X112077428Y-131468761D01*
X111982190Y-131516380D01*
X111696476Y-131516380D01*
X111601238Y-131468761D01*
X111553619Y-131421142D01*
X120523095Y-76922380D02*
X120523095Y-77731904D01*
X120570714Y-77827142D01*
X120618333Y-77874761D01*
X120713571Y-77922380D01*
X120904047Y-77922380D01*
X120999285Y-77874761D01*
X121046904Y-77827142D01*
X121094523Y-77731904D01*
X121094523Y-76922380D01*
X122094523Y-77922380D02*
X121523095Y-77922380D01*
X121808809Y-77922380D02*
X121808809Y-76922380D01*
X121713571Y-77065238D01*
X121618333Y-77160476D01*
X121523095Y-77208095D01*
X103205595Y-100401428D02*
X103967500Y-100401428D01*
X103586547Y-100782380D02*
X103586547Y-100020476D01*
X104919880Y-99782380D02*
X104443690Y-99782380D01*
X104396071Y-100258571D01*
X104443690Y-100210952D01*
X104538928Y-100163333D01*
X104777023Y-100163333D01*
X104872261Y-100210952D01*
X104919880Y-100258571D01*
X104967500Y-100353809D01*
X104967500Y-100591904D01*
X104919880Y-100687142D01*
X104872261Y-100734761D01*
X104777023Y-100782380D01*
X104538928Y-100782380D01*
X104443690Y-100734761D01*
X104396071Y-100687142D01*
X105253214Y-99782380D02*
X105586547Y-100782380D01*
X105919880Y-99782380D01*
X103205595Y-97861428D02*
X103967500Y-97861428D01*
X103586547Y-98242380D02*
X103586547Y-97480476D01*
X104348452Y-97242380D02*
X104967500Y-97242380D01*
X104634166Y-97623333D01*
X104777023Y-97623333D01*
X104872261Y-97670952D01*
X104919880Y-97718571D01*
X104967500Y-97813809D01*
X104967500Y-98051904D01*
X104919880Y-98147142D01*
X104872261Y-98194761D01*
X104777023Y-98242380D01*
X104491309Y-98242380D01*
X104396071Y-98194761D01*
X104348452Y-98147142D01*
X105253214Y-97242380D02*
X105586547Y-98242380D01*
X105919880Y-97242380D01*
X106157976Y-97242380D02*
X106777023Y-97242380D01*
X106443690Y-97623333D01*
X106586547Y-97623333D01*
X106681785Y-97670952D01*
X106729404Y-97718571D01*
X106777023Y-97813809D01*
X106777023Y-98051904D01*
X106729404Y-98147142D01*
X106681785Y-98194761D01*
X106586547Y-98242380D01*
X106300833Y-98242380D01*
X106205595Y-98194761D01*
X106157976Y-98147142D01*
X123584880Y-97575714D02*
X123584880Y-98385238D01*
X123537261Y-98480476D01*
X123489642Y-98528095D01*
X123394404Y-98575714D01*
X123251547Y-98575714D01*
X123156309Y-98528095D01*
X123584880Y-98194761D02*
X123489642Y-98242380D01*
X123299166Y-98242380D01*
X123203928Y-98194761D01*
X123156309Y-98147142D01*
X123108690Y-98051904D01*
X123108690Y-97766190D01*
X123156309Y-97670952D01*
X123203928Y-97623333D01*
X123299166Y-97575714D01*
X123489642Y-97575714D01*
X123584880Y-97623333D01*
X124061071Y-97575714D02*
X124061071Y-98242380D01*
X124061071Y-97670952D02*
X124108690Y-97623333D01*
X124203928Y-97575714D01*
X124346785Y-97575714D01*
X124442023Y-97623333D01*
X124489642Y-97718571D01*
X124489642Y-98242380D01*
X125394404Y-98242380D02*
X125394404Y-97242380D01*
X125394404Y-98194761D02*
X125299166Y-98242380D01*
X125108690Y-98242380D01*
X125013452Y-98194761D01*
X124965833Y-98147142D01*
X124918214Y-98051904D01*
X124918214Y-97766190D01*
X124965833Y-97670952D01*
X125013452Y-97623333D01*
X125108690Y-97575714D01*
X125299166Y-97575714D01*
X125394404Y-97623333D01*
X121870595Y-100401428D02*
X122632500Y-100401428D01*
X122251547Y-100782380D02*
X122251547Y-100020476D01*
X123013452Y-99782380D02*
X123632500Y-99782380D01*
X123299166Y-100163333D01*
X123442023Y-100163333D01*
X123537261Y-100210952D01*
X123584880Y-100258571D01*
X123632500Y-100353809D01*
X123632500Y-100591904D01*
X123584880Y-100687142D01*
X123537261Y-100734761D01*
X123442023Y-100782380D01*
X123156309Y-100782380D01*
X123061071Y-100734761D01*
X123013452Y-100687142D01*
X123918214Y-99782380D02*
X124251547Y-100782380D01*
X124584880Y-99782380D01*
X124822976Y-99782380D02*
X125442023Y-99782380D01*
X125108690Y-100163333D01*
X125251547Y-100163333D01*
X125346785Y-100210952D01*
X125394404Y-100258571D01*
X125442023Y-100353809D01*
X125442023Y-100591904D01*
X125394404Y-100687142D01*
X125346785Y-100734761D01*
X125251547Y-100782380D01*
X124965833Y-100782380D01*
X124870595Y-100734761D01*
X124822976Y-100687142D01*
X104142166Y-94781714D02*
X104142166Y-95591238D01*
X104094547Y-95686476D01*
X104046928Y-95734095D01*
X103951690Y-95781714D01*
X103808833Y-95781714D01*
X103713595Y-95734095D01*
X104142166Y-95400761D02*
X104046928Y-95448380D01*
X103856452Y-95448380D01*
X103761214Y-95400761D01*
X103713595Y-95353142D01*
X103665976Y-95257904D01*
X103665976Y-94972190D01*
X103713595Y-94876952D01*
X103761214Y-94829333D01*
X103856452Y-94781714D01*
X104046928Y-94781714D01*
X104142166Y-94829333D01*
X104618357Y-94781714D02*
X104618357Y-95448380D01*
X104618357Y-94876952D02*
X104665976Y-94829333D01*
X104761214Y-94781714D01*
X104904071Y-94781714D01*
X104999309Y-94829333D01*
X105046928Y-94924571D01*
X105046928Y-95448380D01*
X105951690Y-95448380D02*
X105951690Y-94448380D01*
X105951690Y-95400761D02*
X105856452Y-95448380D01*
X105665976Y-95448380D01*
X105570738Y-95400761D01*
X105523119Y-95353142D01*
X105475500Y-95257904D01*
X105475500Y-94972190D01*
X105523119Y-94876952D01*
X105570738Y-94829333D01*
X105665976Y-94781714D01*
X105856452Y-94781714D01*
X105951690Y-94829333D01*
X107990476Y-109005714D02*
X107990476Y-110005714D01*
X107990476Y-109053333D02*
X108085714Y-109005714D01*
X108276190Y-109005714D01*
X108371428Y-109053333D01*
X108419047Y-109100952D01*
X108466666Y-109196190D01*
X108466666Y-109481904D01*
X108419047Y-109577142D01*
X108371428Y-109624761D01*
X108276190Y-109672380D01*
X108085714Y-109672380D01*
X107990476Y-109624761D01*
X109323809Y-109624761D02*
X109228571Y-109672380D01*
X109038095Y-109672380D01*
X108942857Y-109624761D01*
X108895238Y-109577142D01*
X108847619Y-109481904D01*
X108847619Y-109196190D01*
X108895238Y-109100952D01*
X108942857Y-109053333D01*
X109038095Y-109005714D01*
X109228571Y-109005714D01*
X109323809Y-109053333D01*
X109752380Y-109672380D02*
X109752380Y-109005714D01*
X109752380Y-109100952D02*
X109800000Y-109053333D01*
X109895238Y-109005714D01*
X110038095Y-109005714D01*
X110133333Y-109053333D01*
X110180952Y-109148571D01*
X110180952Y-109672380D01*
X110180952Y-109148571D02*
X110228571Y-109053333D01*
X110323809Y-109005714D01*
X110466666Y-109005714D01*
X110561904Y-109053333D01*
X110609523Y-109148571D01*
X110609523Y-109672380D01*
X111609523Y-109672380D02*
X111038095Y-109672380D01*
X111323809Y-109672380D02*
X111323809Y-108672380D01*
X111228571Y-108815238D01*
X111133333Y-108910476D01*
X111038095Y-108958095D01*
X112180952Y-109100952D02*
X112085714Y-109053333D01*
X112038095Y-109005714D01*
X111990476Y-108910476D01*
X111990476Y-108862857D01*
X112038095Y-108767619D01*
X112085714Y-108720000D01*
X112180952Y-108672380D01*
X112371428Y-108672380D01*
X112466666Y-108720000D01*
X112514285Y-108767619D01*
X112561904Y-108862857D01*
X112561904Y-108910476D01*
X112514285Y-109005714D01*
X112466666Y-109053333D01*
X112371428Y-109100952D01*
X112180952Y-109100952D01*
X112085714Y-109148571D01*
X112038095Y-109196190D01*
X111990476Y-109291428D01*
X111990476Y-109481904D01*
X112038095Y-109577142D01*
X112085714Y-109624761D01*
X112180952Y-109672380D01*
X112371428Y-109672380D01*
X112466666Y-109624761D01*
X112514285Y-109577142D01*
X112561904Y-109481904D01*
X112561904Y-109291428D01*
X112514285Y-109196190D01*
X112466666Y-109148571D01*
X112371428Y-109100952D01*
X113180952Y-108672380D02*
X113276190Y-108672380D01*
X113371428Y-108720000D01*
X113419047Y-108767619D01*
X113466666Y-108862857D01*
X113514285Y-109053333D01*
X113514285Y-109291428D01*
X113466666Y-109481904D01*
X113419047Y-109577142D01*
X113371428Y-109624761D01*
X113276190Y-109672380D01*
X113180952Y-109672380D01*
X113085714Y-109624761D01*
X113038095Y-109577142D01*
X112990476Y-109481904D01*
X112942857Y-109291428D01*
X112942857Y-109053333D01*
X112990476Y-108862857D01*
X113038095Y-108767619D01*
X113085714Y-108720000D01*
X113180952Y-108672380D01*
X114371428Y-109005714D02*
X114371428Y-109672380D01*
X114133333Y-108624761D02*
X113895238Y-109339047D01*
X114514285Y-109339047D01*
X115657142Y-109672380D02*
X115657142Y-109005714D01*
X115657142Y-109100952D02*
X115704761Y-109053333D01*
X115800000Y-109005714D01*
X115942857Y-109005714D01*
X116038095Y-109053333D01*
X116085714Y-109148571D01*
X116085714Y-109672380D01*
X116085714Y-109148571D02*
X116133333Y-109053333D01*
X116228571Y-109005714D01*
X116371428Y-109005714D01*
X116466666Y-109053333D01*
X116514285Y-109148571D01*
X116514285Y-109672380D01*
X117133333Y-109672380D02*
X117038095Y-109624761D01*
X116990476Y-109577142D01*
X116942857Y-109481904D01*
X116942857Y-109196190D01*
X116990476Y-109100952D01*
X117038095Y-109053333D01*
X117133333Y-109005714D01*
X117276190Y-109005714D01*
X117371428Y-109053333D01*
X117419047Y-109100952D01*
X117466666Y-109196190D01*
X117466666Y-109481904D01*
X117419047Y-109577142D01*
X117371428Y-109624761D01*
X117276190Y-109672380D01*
X117133333Y-109672380D01*
X118323809Y-109672380D02*
X118323809Y-108672380D01*
X118323809Y-109624761D02*
X118228571Y-109672380D01*
X118038095Y-109672380D01*
X117942857Y-109624761D01*
X117895238Y-109577142D01*
X117847619Y-109481904D01*
X117847619Y-109196190D01*
X117895238Y-109100952D01*
X117942857Y-109053333D01*
X118038095Y-109005714D01*
X118228571Y-109005714D01*
X118323809Y-109053333D01*
X119228571Y-109005714D02*
X119228571Y-109672380D01*
X118800000Y-109005714D02*
X118800000Y-109529523D01*
X118847619Y-109624761D01*
X118942857Y-109672380D01*
X119085714Y-109672380D01*
X119180952Y-109624761D01*
X119228571Y-109577142D01*
X119847619Y-109672380D02*
X119752380Y-109624761D01*
X119704761Y-109529523D01*
X119704761Y-108672380D01*
X120609523Y-109624761D02*
X120514285Y-109672380D01*
X120323809Y-109672380D01*
X120228571Y-109624761D01*
X120180952Y-109529523D01*
X120180952Y-109148571D01*
X120228571Y-109053333D01*
X120323809Y-109005714D01*
X120514285Y-109005714D01*
X120609523Y-109053333D01*
X120657142Y-109148571D01*
X120657142Y-109243809D01*
X120180952Y-109339047D01*
X103973333Y-114149142D02*
X103925714Y-114196761D01*
X103782857Y-114244380D01*
X103687619Y-114244380D01*
X103544761Y-114196761D01*
X103449523Y-114101523D01*
X103401904Y-114006285D01*
X103354285Y-113815809D01*
X103354285Y-113672952D01*
X103401904Y-113482476D01*
X103449523Y-113387238D01*
X103544761Y-113292000D01*
X103687619Y-113244380D01*
X103782857Y-113244380D01*
X103925714Y-113292000D01*
X103973333Y-113339619D01*
X104354285Y-113339619D02*
X104401904Y-113292000D01*
X104497142Y-113244380D01*
X104735238Y-113244380D01*
X104830476Y-113292000D01*
X104878095Y-113339619D01*
X104925714Y-113434857D01*
X104925714Y-113530095D01*
X104878095Y-113672952D01*
X104306666Y-114244380D01*
X104925714Y-114244380D01*
X112061666Y-69302380D02*
X112061666Y-70016666D01*
X112014047Y-70159523D01*
X111918809Y-70254761D01*
X111775952Y-70302380D01*
X111680714Y-70302380D01*
X113061666Y-70302380D02*
X112490238Y-70302380D01*
X112775952Y-70302380D02*
X112775952Y-69302380D01*
X112680714Y-69445238D01*
X112585476Y-69540476D01*
X112490238Y-69588095D01*
X121643095Y-127722380D02*
X121643095Y-128531904D01*
X121690714Y-128627142D01*
X121738333Y-128674761D01*
X121833571Y-128722380D01*
X122024047Y-128722380D01*
X122119285Y-128674761D01*
X122166904Y-128627142D01*
X122214523Y-128531904D01*
X122214523Y-127722380D01*
X122595476Y-127722380D02*
X123214523Y-127722380D01*
X122881190Y-128103333D01*
X123024047Y-128103333D01*
X123119285Y-128150952D01*
X123166904Y-128198571D01*
X123214523Y-128293809D01*
X123214523Y-128531904D01*
X123166904Y-128627142D01*
X123119285Y-128674761D01*
X123024047Y-128722380D01*
X122738333Y-128722380D01*
X122643095Y-128674761D01*
X122595476Y-128627142D01*
X123323690Y-125626761D02*
X123418928Y-125674380D01*
X123609404Y-125674380D01*
X123704642Y-125626761D01*
X123752261Y-125531523D01*
X123752261Y-125483904D01*
X123704642Y-125388666D01*
X123609404Y-125341047D01*
X123466547Y-125341047D01*
X123371309Y-125293428D01*
X123323690Y-125198190D01*
X123323690Y-125150571D01*
X123371309Y-125055333D01*
X123466547Y-125007714D01*
X123609404Y-125007714D01*
X123704642Y-125055333D01*
X124609404Y-125674380D02*
X124609404Y-124674380D01*
X124609404Y-125626761D02*
X124514166Y-125674380D01*
X124323690Y-125674380D01*
X124228452Y-125626761D01*
X124180833Y-125579142D01*
X124133214Y-125483904D01*
X124133214Y-125198190D01*
X124180833Y-125102952D01*
X124228452Y-125055333D01*
X124323690Y-125007714D01*
X124514166Y-125007714D01*
X124609404Y-125055333D01*
X120343452Y-120594380D02*
X120248214Y-120546761D01*
X120200595Y-120451523D01*
X120200595Y-119594380D01*
X120724404Y-120594380D02*
X120724404Y-119927714D01*
X120724404Y-120118190D02*
X120772023Y-120022952D01*
X120819642Y-119975333D01*
X120914880Y-119927714D01*
X121010119Y-119927714D01*
X122799880Y-119927714D02*
X122799880Y-120737238D01*
X122752261Y-120832476D01*
X122704642Y-120880095D01*
X122609404Y-120927714D01*
X122466547Y-120927714D01*
X122371309Y-120880095D01*
X122799880Y-120546761D02*
X122704642Y-120594380D01*
X122514166Y-120594380D01*
X122418928Y-120546761D01*
X122371309Y-120499142D01*
X122323690Y-120403904D01*
X122323690Y-120118190D01*
X122371309Y-120022952D01*
X122418928Y-119975333D01*
X122514166Y-119927714D01*
X122704642Y-119927714D01*
X122799880Y-119975333D01*
X123276071Y-119927714D02*
X123276071Y-120594380D01*
X123276071Y-120022952D02*
X123323690Y-119975333D01*
X123418928Y-119927714D01*
X123561785Y-119927714D01*
X123657023Y-119975333D01*
X123704642Y-120070571D01*
X123704642Y-120594380D01*
X124609404Y-120594380D02*
X124609404Y-119594380D01*
X124609404Y-120546761D02*
X124514166Y-120594380D01*
X124323690Y-120594380D01*
X124228452Y-120546761D01*
X124180833Y-120499142D01*
X124133214Y-120403904D01*
X124133214Y-120118190D01*
X124180833Y-120022952D01*
X124228452Y-119975333D01*
X124323690Y-119927714D01*
X124514166Y-119927714D01*
X124609404Y-119975333D01*
X120152976Y-125626761D02*
X120248214Y-125674380D01*
X120438690Y-125674380D01*
X120533928Y-125626761D01*
X120581547Y-125531523D01*
X120581547Y-125483904D01*
X120533928Y-125388666D01*
X120438690Y-125341047D01*
X120295833Y-125341047D01*
X120200595Y-125293428D01*
X120152976Y-125198190D01*
X120152976Y-125150571D01*
X120200595Y-125055333D01*
X120295833Y-125007714D01*
X120438690Y-125007714D01*
X120533928Y-125055333D01*
X121438690Y-125626761D02*
X121343452Y-125674380D01*
X121152976Y-125674380D01*
X121057738Y-125626761D01*
X121010119Y-125579142D01*
X120962500Y-125483904D01*
X120962500Y-125198190D01*
X121010119Y-125102952D01*
X121057738Y-125055333D01*
X121152976Y-125007714D01*
X121343452Y-125007714D01*
X121438690Y-125055333D01*
X121867261Y-125674380D02*
X121867261Y-124674380D01*
X121962500Y-125293428D02*
X122248214Y-125674380D01*
X122248214Y-125007714D02*
X121867261Y-125388666D01*
X122418928Y-122467714D02*
X122657023Y-123134380D01*
X122895119Y-122467714D01*
X123704642Y-123134380D02*
X123704642Y-122134380D01*
X123704642Y-123086761D02*
X123609404Y-123134380D01*
X123418928Y-123134380D01*
X123323690Y-123086761D01*
X123276071Y-123039142D01*
X123228452Y-122943904D01*
X123228452Y-122658190D01*
X123276071Y-122562952D01*
X123323690Y-122515333D01*
X123418928Y-122467714D01*
X123609404Y-122467714D01*
X123704642Y-122515333D01*
X124609404Y-123134380D02*
X124609404Y-122134380D01*
X124609404Y-123086761D02*
X124514166Y-123134380D01*
X124323690Y-123134380D01*
X124228452Y-123086761D01*
X124180833Y-123039142D01*
X124133214Y-122943904D01*
X124133214Y-122658190D01*
X124180833Y-122562952D01*
X124228452Y-122515333D01*
X124323690Y-122467714D01*
X124514166Y-122467714D01*
X124609404Y-122515333D01*
X120105357Y-122467714D02*
X120295833Y-123134380D01*
X120486309Y-122658190D01*
X120676785Y-123134380D01*
X120867261Y-122467714D01*
X121200595Y-123086761D02*
X121295833Y-123134380D01*
X121486309Y-123134380D01*
X121581547Y-123086761D01*
X121629166Y-122991523D01*
X121629166Y-122943904D01*
X121581547Y-122848666D01*
X121486309Y-122801047D01*
X121343452Y-122801047D01*
X121248214Y-122753428D01*
X121200595Y-122658190D01*
X121200595Y-122610571D01*
X121248214Y-122515333D01*
X121343452Y-122467714D01*
X121486309Y-122467714D01*
X121581547Y-122515333D01*
X105283095Y-127722380D02*
X105283095Y-128531904D01*
X105330714Y-128627142D01*
X105378333Y-128674761D01*
X105473571Y-128722380D01*
X105664047Y-128722380D01*
X105759285Y-128674761D01*
X105806904Y-128627142D01*
X105854523Y-128531904D01*
X105854523Y-127722380D01*
X106283095Y-127817619D02*
X106330714Y-127770000D01*
X106425952Y-127722380D01*
X106664047Y-127722380D01*
X106759285Y-127770000D01*
X106806904Y-127817619D01*
X106854523Y-127912857D01*
X106854523Y-128008095D01*
X106806904Y-128150952D01*
X106235476Y-128722380D01*
X106854523Y-128722380D01*
X103983452Y-120594380D02*
X103888214Y-120546761D01*
X103840595Y-120451523D01*
X103840595Y-119594380D01*
X104364404Y-120594380D02*
X104364404Y-119927714D01*
X104364404Y-120118190D02*
X104412023Y-120022952D01*
X104459642Y-119975333D01*
X104554880Y-119927714D01*
X104650119Y-119927714D01*
X106439880Y-119927714D02*
X106439880Y-120737238D01*
X106392261Y-120832476D01*
X106344642Y-120880095D01*
X106249404Y-120927714D01*
X106106547Y-120927714D01*
X106011309Y-120880095D01*
X106439880Y-120546761D02*
X106344642Y-120594380D01*
X106154166Y-120594380D01*
X106058928Y-120546761D01*
X106011309Y-120499142D01*
X105963690Y-120403904D01*
X105963690Y-120118190D01*
X106011309Y-120022952D01*
X106058928Y-119975333D01*
X106154166Y-119927714D01*
X106344642Y-119927714D01*
X106439880Y-119975333D01*
X106916071Y-119927714D02*
X106916071Y-120594380D01*
X106916071Y-120022952D02*
X106963690Y-119975333D01*
X107058928Y-119927714D01*
X107201785Y-119927714D01*
X107297023Y-119975333D01*
X107344642Y-120070571D01*
X107344642Y-120594380D01*
X108249404Y-120594380D02*
X108249404Y-119594380D01*
X108249404Y-120546761D02*
X108154166Y-120594380D01*
X107963690Y-120594380D01*
X107868452Y-120546761D01*
X107820833Y-120499142D01*
X107773214Y-120403904D01*
X107773214Y-120118190D01*
X107820833Y-120022952D01*
X107868452Y-119975333D01*
X107963690Y-119927714D01*
X108154166Y-119927714D01*
X108249404Y-119975333D01*
X106963690Y-125626761D02*
X107058928Y-125674380D01*
X107249404Y-125674380D01*
X107344642Y-125626761D01*
X107392261Y-125531523D01*
X107392261Y-125483904D01*
X107344642Y-125388666D01*
X107249404Y-125341047D01*
X107106547Y-125341047D01*
X107011309Y-125293428D01*
X106963690Y-125198190D01*
X106963690Y-125150571D01*
X107011309Y-125055333D01*
X107106547Y-125007714D01*
X107249404Y-125007714D01*
X107344642Y-125055333D01*
X108249404Y-125674380D02*
X108249404Y-124674380D01*
X108249404Y-125626761D02*
X108154166Y-125674380D01*
X107963690Y-125674380D01*
X107868452Y-125626761D01*
X107820833Y-125579142D01*
X107773214Y-125483904D01*
X107773214Y-125198190D01*
X107820833Y-125102952D01*
X107868452Y-125055333D01*
X107963690Y-125007714D01*
X108154166Y-125007714D01*
X108249404Y-125055333D01*
X103792976Y-125626761D02*
X103888214Y-125674380D01*
X104078690Y-125674380D01*
X104173928Y-125626761D01*
X104221547Y-125531523D01*
X104221547Y-125483904D01*
X104173928Y-125388666D01*
X104078690Y-125341047D01*
X103935833Y-125341047D01*
X103840595Y-125293428D01*
X103792976Y-125198190D01*
X103792976Y-125150571D01*
X103840595Y-125055333D01*
X103935833Y-125007714D01*
X104078690Y-125007714D01*
X104173928Y-125055333D01*
X105078690Y-125626761D02*
X104983452Y-125674380D01*
X104792976Y-125674380D01*
X104697738Y-125626761D01*
X104650119Y-125579142D01*
X104602500Y-125483904D01*
X104602500Y-125198190D01*
X104650119Y-125102952D01*
X104697738Y-125055333D01*
X104792976Y-125007714D01*
X104983452Y-125007714D01*
X105078690Y-125055333D01*
X105507261Y-125674380D02*
X105507261Y-124674380D01*
X105602500Y-125293428D02*
X105888214Y-125674380D01*
X105888214Y-125007714D02*
X105507261Y-125388666D01*
X106058928Y-122467714D02*
X106297023Y-123134380D01*
X106535119Y-122467714D01*
X107344642Y-123134380D02*
X107344642Y-122134380D01*
X107344642Y-123086761D02*
X107249404Y-123134380D01*
X107058928Y-123134380D01*
X106963690Y-123086761D01*
X106916071Y-123039142D01*
X106868452Y-122943904D01*
X106868452Y-122658190D01*
X106916071Y-122562952D01*
X106963690Y-122515333D01*
X107058928Y-122467714D01*
X107249404Y-122467714D01*
X107344642Y-122515333D01*
X108249404Y-123134380D02*
X108249404Y-122134380D01*
X108249404Y-123086761D02*
X108154166Y-123134380D01*
X107963690Y-123134380D01*
X107868452Y-123086761D01*
X107820833Y-123039142D01*
X107773214Y-122943904D01*
X107773214Y-122658190D01*
X107820833Y-122562952D01*
X107868452Y-122515333D01*
X107963690Y-122467714D01*
X108154166Y-122467714D01*
X108249404Y-122515333D01*
X103745357Y-122467714D02*
X103935833Y-123134380D01*
X104126309Y-122658190D01*
X104316785Y-123134380D01*
X104507261Y-122467714D01*
X104840595Y-123086761D02*
X104935833Y-123134380D01*
X105126309Y-123134380D01*
X105221547Y-123086761D01*
X105269166Y-122991523D01*
X105269166Y-122943904D01*
X105221547Y-122848666D01*
X105126309Y-122801047D01*
X104983452Y-122801047D01*
X104888214Y-122753428D01*
X104840595Y-122658190D01*
X104840595Y-122610571D01*
X104888214Y-122515333D01*
X104983452Y-122467714D01*
X105126309Y-122467714D01*
X105221547Y-122515333D01*
X127936666Y-135977380D02*
X127936666Y-136691666D01*
X127889047Y-136834523D01*
X127793809Y-136929761D01*
X127650952Y-136977380D01*
X127555714Y-136977380D01*
X128365238Y-136072619D02*
X128412857Y-136025000D01*
X128508095Y-135977380D01*
X128746190Y-135977380D01*
X128841428Y-136025000D01*
X128889047Y-136072619D01*
X128936666Y-136167857D01*
X128936666Y-136263095D01*
X128889047Y-136405952D01*
X128317619Y-136977380D01*
X128936666Y-136977380D01*
D11*
X106567500Y-71857776D02*
X106567500Y-72367224D01*
X105522500Y-71857776D02*
X105522500Y-72367224D01*
X100442500Y-72367224D02*
X100442500Y-71857776D01*
X101487500Y-72367224D02*
X101487500Y-71857776D01*
X102982500Y-72367224D02*
X102982500Y-71857776D01*
X104027500Y-72367224D02*
X104027500Y-71857776D01*
X118900000Y-134060000D02*
X118900000Y-132660000D01*
X107925000Y-139660000D02*
X105925000Y-139660000D01*
X120025000Y-140260000D02*
X120025000Y-134060000D01*
X111950000Y-134060000D02*
X113300000Y-134060000D01*
X107925000Y-134660000D02*
X105925000Y-134660000D01*
X105925000Y-134660000D02*
X105925000Y-139660000D01*
X107925000Y-134060000D02*
X110300000Y-134060000D01*
X117350000Y-134060000D02*
X117350000Y-132660000D01*
X107925000Y-134060000D02*
X107925000Y-134660000D01*
X118900000Y-134060000D02*
X120025000Y-134060000D01*
X114950000Y-134060000D02*
X117350000Y-134060000D01*
X107925000Y-139660000D02*
X107925000Y-140260000D01*
X118450000Y-140260000D02*
X107925000Y-140260000D01*
X99060000Y-76200000D02*
X129540000Y-76200000D01*
X129540000Y-76200000D02*
X129540000Y-111760000D01*
X129540000Y-111760000D02*
X99060000Y-111760000D01*
X99060000Y-111760000D02*
X99060000Y-76200000D01*
X106787733Y-113282000D02*
X107080267Y-113282000D01*
X106787733Y-114302000D02*
X107080267Y-114302000D01*
X125350000Y-70077071D02*
X125350000Y-69622929D01*
X127890000Y-67537071D02*
X127890000Y-67140000D01*
X118490000Y-67537071D02*
X118490000Y-67140000D01*
X117730000Y-67537071D02*
X117730000Y-67140000D01*
X127890000Y-70077071D02*
X127890000Y-69622929D01*
X125350000Y-67537071D02*
X125350000Y-67140000D01*
X115190000Y-67537071D02*
X115190000Y-67140000D01*
X126110000Y-70077071D02*
X126110000Y-69622929D01*
X115950000Y-70010000D02*
X115950000Y-69622929D01*
X114300000Y-72390000D02*
X114300000Y-71120000D01*
X120270000Y-67537071D02*
X120270000Y-67140000D01*
X123570000Y-67537071D02*
X123570000Y-67140000D01*
X118490000Y-70077071D02*
X118490000Y-69622929D01*
X117730000Y-70077071D02*
X117730000Y-69622929D01*
X115190000Y-70010000D02*
X115190000Y-69622929D01*
X126110000Y-67537071D02*
X126110000Y-67140000D01*
X122810000Y-70077071D02*
X122810000Y-69622929D01*
X128650000Y-70077071D02*
X128650000Y-69622929D01*
X115570000Y-72390000D02*
X114300000Y-72390000D01*
X120270000Y-70077071D02*
X120270000Y-69622929D01*
X115950000Y-67537071D02*
X115950000Y-67140000D01*
X122810000Y-67537071D02*
X122810000Y-67140000D01*
X121030000Y-70077071D02*
X121030000Y-69622929D01*
X128650000Y-67537071D02*
X128650000Y-67140000D01*
X123570000Y-70077071D02*
X123570000Y-69622929D01*
X121030000Y-67537071D02*
X121030000Y-67140000D01*
X130025000Y-122682000D02*
G75*
G03*
X130025000Y-122682000I-7620000J0D01*
G01*
X113665000Y-122682000D02*
G75*
G03*
X113665000Y-122682000I-7620000J0D01*
G01*
X127060000Y-134560000D02*
X124400000Y-134560000D01*
X127060000Y-139760000D02*
X125730000Y-139760000D01*
X127060000Y-137160000D02*
X124400000Y-137160000D01*
X127060000Y-137160000D02*
X127060000Y-134560000D01*
X127060000Y-138430000D02*
X127060000Y-139760000D01*
X124400000Y-137160000D02*
X124400000Y-134560000D01*
%LPC*%
D12*
X106045000Y-71200000D03*
X106045000Y-73025000D03*
D13*
X100965000Y-73025000D03*
X100965000Y-71200000D03*
X103505000Y-73025000D03*
X103505000Y-71200000D03*
D14*
X116525000Y-137160000D03*
X109525000Y-137160000D03*
D15*
X114125000Y-133910000D03*
X111125000Y-133910000D03*
X119225000Y-140410000D03*
X118125000Y-133910000D03*
D16*
X101600000Y-87630000D03*
D17*
X101600000Y-90170000D03*
X101600000Y-92710000D03*
X101600000Y-95250000D03*
X101600000Y-97790000D03*
X101600000Y-100330000D03*
X127000000Y-100330000D03*
X127000000Y-97790000D03*
X127000000Y-95250000D03*
X127000000Y-92710000D03*
X127000000Y-90170000D03*
X127000000Y-87630000D03*
X116840000Y-77978000D03*
X114300000Y-77978000D03*
X111760000Y-77978000D03*
D18*
X106071500Y-113792000D03*
X107796500Y-113792000D03*
D16*
X115570000Y-71120000D03*
D19*
X115570000Y-68580000D03*
X118110000Y-71120000D03*
X118110000Y-68580000D03*
X120650000Y-71120000D03*
X120650000Y-68580000D03*
X123190000Y-71120000D03*
X123190000Y-68580000D03*
X125730000Y-71120000D03*
X125730000Y-68580000D03*
X128270000Y-71120000D03*
X128270000Y-68580000D03*
D16*
X118595000Y-120142000D03*
D17*
X118595000Y-122682000D03*
X118595000Y-125222000D03*
X126215000Y-125222000D03*
X126215000Y-122682000D03*
X126215000Y-120142000D03*
D16*
X102235000Y-120142000D03*
D17*
X102235000Y-122682000D03*
X102235000Y-125222000D03*
X109855000Y-125222000D03*
X109855000Y-122682000D03*
X109855000Y-120142000D03*
D16*
X125730000Y-138430000D03*
D19*
X125730000Y-135890000D03*
M02*
