M48
; DRILL file {KiCad 6.0.9-8da3e8f707~116~ubuntu20.04.1} date sob 17 dec 2022 22:05:44
; FORMAT={-:-/ absolute / metric / decimal}
; #@! TF.CreationDate,2022-12-17T22:05:44+01:00
; #@! TF.GenerationSoftware,Kicad,Pcbnew,6.0.9-8da3e8f707~116~ubuntu20.04.1
; #@! TF.FileFunction,Plated,1,2,PTH
FMAT,2
METRIC
; #@! TA.AperFunction,Plated,PTH,ComponentDrill
T1C1.000
%
G90
G05
T1
X101.6Y-87.63
X101.6Y-90.17
X101.6Y-92.71
X101.6Y-95.25
X101.6Y-97.79
X101.6Y-100.33
X102.235Y-120.142
X102.235Y-122.682
X102.235Y-125.222
X109.855Y-120.142
X109.855Y-122.682
X109.855Y-125.222
X111.76Y-77.978
X114.3Y-77.978
X115.57Y-68.58
X115.57Y-71.12
X116.84Y-77.978
X118.11Y-68.58
X118.11Y-71.12
X118.595Y-120.142
X118.595Y-122.682
X118.595Y-125.222
X120.65Y-68.58
X120.65Y-71.12
X123.19Y-68.58
X123.19Y-71.12
X125.73Y-68.58
X125.73Y-71.12
X125.73Y-135.89
X125.73Y-138.43
X126.215Y-120.142
X126.215Y-122.682
X126.215Y-125.222
X127.0Y-87.63
X127.0Y-90.17
X127.0Y-92.71
X127.0Y-95.25
X127.0Y-97.79
X127.0Y-100.33
X128.27Y-68.58
X128.27Y-71.12
T0
M30
