G04 #@! TF.GenerationSoftware,KiCad,Pcbnew,6.0.9-8da3e8f707~116~ubuntu20.04.1*
G04 #@! TF.CreationDate,2022-12-17T22:04:31+01:00*
G04 #@! TF.ProjectId,pcm_pmod,70636d5f-706d-46f6-942e-6b696361645f,rev?*
G04 #@! TF.SameCoordinates,Original*
G04 #@! TF.FileFunction,Copper,L2,Bot*
G04 #@! TF.FilePolarity,Positive*
%FSLAX46Y46*%
G04 Gerber Fmt 4.6, Leading zero omitted, Abs format (unit mm)*
G04 Created by KiCad (PCBNEW 6.0.9-8da3e8f707~116~ubuntu20.04.1) date 2022-12-17 22:04:31*
%MOMM*%
%LPD*%
G01*
G04 APERTURE LIST*
G04 Aperture macros list*
%AMRoundRect*
0 Rectangle with rounded corners*
0 $1 Rounding radius*
0 $2 $3 $4 $5 $6 $7 $8 $9 X,Y pos of 4 corners*
0 Add a 4 corners polygon primitive as box body*
4,1,4,$2,$3,$4,$5,$6,$7,$8,$9,$2,$3,0*
0 Add four circle primitives for the rounded corners*
1,1,$1+$1,$2,$3*
1,1,$1+$1,$4,$5*
1,1,$1+$1,$6,$7*
1,1,$1+$1,$8,$9*
0 Add four rect primitives between the rounded corners*
20,1,$1+$1,$2,$3,$4,$5,0*
20,1,$1+$1,$4,$5,$6,$7,0*
20,1,$1+$1,$6,$7,$8,$9,0*
20,1,$1+$1,$8,$9,$2,$3,0*%
G04 Aperture macros list end*
G04 #@! TA.AperFunction,ComponentPad*
%ADD10R,1.700000X1.700000*%
G04 #@! TD*
G04 #@! TA.AperFunction,ComponentPad*
%ADD11C,1.700000*%
G04 #@! TD*
G04 #@! TA.AperFunction,ComponentPad*
%ADD12O,1.700000X1.700000*%
G04 #@! TD*
G04 #@! TA.AperFunction,SMDPad,CuDef*
%ADD13RoundRect,0.237500X0.300000X0.237500X-0.300000X0.237500X-0.300000X-0.237500X0.300000X-0.237500X0*%
G04 #@! TD*
G04 #@! TA.AperFunction,SMDPad,CuDef*
%ADD14RoundRect,0.237500X-0.237500X0.250000X-0.237500X-0.250000X0.237500X-0.250000X0.237500X0.250000X0*%
G04 #@! TD*
G04 #@! TA.AperFunction,Conductor*
%ADD15C,0.500000*%
G04 #@! TD*
G04 #@! TA.AperFunction,Conductor*
%ADD16C,0.250000*%
G04 #@! TD*
G04 APERTURE END LIST*
D10*
X101600000Y-87630000D03*
D11*
X101600000Y-90170000D03*
X101600000Y-92710000D03*
X101600000Y-95250000D03*
X101600000Y-97790000D03*
X101600000Y-100330000D03*
X127000000Y-100330000D03*
X127000000Y-97790000D03*
X127000000Y-95250000D03*
X127000000Y-92710000D03*
X127000000Y-90170000D03*
X127000000Y-87630000D03*
X116840000Y-77978000D03*
X114300000Y-77978000D03*
X111760000Y-77978000D03*
D10*
X115570000Y-71120000D03*
D12*
X115570000Y-68580000D03*
X118110000Y-71120000D03*
X118110000Y-68580000D03*
X120650000Y-71120000D03*
X120650000Y-68580000D03*
X123190000Y-71120000D03*
X123190000Y-68580000D03*
X125730000Y-71120000D03*
X125730000Y-68580000D03*
X128270000Y-71120000D03*
X128270000Y-68580000D03*
D10*
X118595000Y-120142000D03*
D11*
X118595000Y-122682000D03*
X118595000Y-125222000D03*
X126215000Y-125222000D03*
X126215000Y-122682000D03*
X126215000Y-120142000D03*
D10*
X102235000Y-120142000D03*
D11*
X102235000Y-122682000D03*
X102235000Y-125222000D03*
X109855000Y-125222000D03*
X109855000Y-122682000D03*
X109855000Y-120142000D03*
D10*
X125730000Y-138430000D03*
D12*
X125730000Y-135890000D03*
D13*
X128270000Y-113792000D03*
X126545000Y-113792000D03*
D14*
X122555000Y-127461000D03*
X122555000Y-129286000D03*
D15*
X123444000Y-122682000D02*
X126215000Y-122682000D01*
X128270000Y-104775000D02*
X127000000Y-103505000D01*
X126215000Y-122682000D02*
X127254000Y-122682000D01*
X118595000Y-120142000D02*
X120904000Y-120142000D01*
X127000000Y-103505000D02*
X127000000Y-100330000D01*
X127000000Y-100330000D02*
X111760000Y-100330000D01*
X120904000Y-120142000D02*
X123444000Y-122682000D01*
X128270000Y-121666000D02*
X128270000Y-104775000D01*
X127254000Y-122682000D02*
X128270000Y-121666000D01*
X109220000Y-97790000D02*
X101600000Y-97790000D01*
X111760000Y-100330000D02*
X109220000Y-97790000D01*
D16*
X101600000Y-87630000D02*
X119380000Y-87630000D01*
X119380000Y-87630000D02*
X120650000Y-86360000D01*
X120650000Y-86360000D02*
X120650000Y-71120000D01*
X101600000Y-90170000D02*
X119380000Y-90170000D01*
X121920000Y-87630000D02*
X121920000Y-69850000D01*
X121920000Y-69850000D02*
X120650000Y-68580000D01*
X119380000Y-90170000D02*
X121920000Y-87630000D01*
X123190000Y-88900000D02*
X119380000Y-92710000D01*
X119380000Y-92710000D02*
X101600000Y-92710000D01*
X123190000Y-71120000D02*
X123190000Y-88900000D01*
X127000000Y-95250000D02*
X124460000Y-92710000D01*
X124460000Y-92710000D02*
X124460000Y-69850000D01*
X124460000Y-69850000D02*
X123190000Y-68580000D01*
X118595000Y-122682000D02*
X117325000Y-121412000D01*
X125730000Y-83820000D02*
X125730000Y-71120000D01*
X125095000Y-84455000D02*
X125730000Y-83820000D01*
X127000000Y-92710000D02*
X125095000Y-90805000D01*
X117325000Y-121412000D02*
X103505000Y-121412000D01*
X125095000Y-90805000D02*
X125095000Y-84455000D01*
X103505000Y-121412000D02*
X102235000Y-122682000D01*
X127095000Y-69945000D02*
X125730000Y-68580000D01*
X125730000Y-85344000D02*
X127095000Y-83979000D01*
X125730000Y-88900000D02*
X125730000Y-85344000D01*
X127095000Y-83979000D02*
X127095000Y-69945000D01*
X127000000Y-90170000D02*
X125730000Y-88900000D01*
X127000000Y-85598000D02*
X128270000Y-84328000D01*
X103505000Y-123952000D02*
X102235000Y-125222000D01*
X128270000Y-84328000D02*
X128270000Y-71120000D01*
X117325000Y-123952000D02*
X103505000Y-123952000D01*
X127000000Y-87630000D02*
X127000000Y-85598000D01*
X118595000Y-125222000D02*
X117325000Y-123952000D01*
D15*
X102870000Y-130810000D02*
X124460000Y-130810000D01*
X125730000Y-132080000D02*
X125730000Y-135890000D01*
X124460000Y-130810000D02*
X125730000Y-132080000D01*
X99695000Y-104775000D02*
X99695000Y-127635000D01*
X101600000Y-102870000D02*
X99695000Y-104775000D01*
X101600000Y-100330000D02*
X101600000Y-102870000D01*
X99695000Y-127635000D02*
X102870000Y-130810000D01*
D16*
X122508000Y-127508000D02*
X122555000Y-127461000D01*
X129540000Y-123190000D02*
X127508000Y-125222000D01*
X129540000Y-69850000D02*
X129540000Y-123190000D01*
X127508000Y-125222000D02*
X126215000Y-125222000D01*
X122555000Y-127461000D02*
X123976000Y-127461000D01*
X109855000Y-125222000D02*
X112141000Y-127508000D01*
X112141000Y-127508000D02*
X122508000Y-127508000D01*
X123976000Y-127461000D02*
X126215000Y-125222000D01*
X128270000Y-68580000D02*
X129540000Y-69850000D01*
G04 #@! TA.AperFunction,Conductor*
G36*
X130145018Y-66550000D02*
G01*
X130159853Y-66552310D01*
X130159855Y-66552310D01*
X130168724Y-66553691D01*
X130174508Y-66552935D01*
X130240868Y-66573307D01*
X130286700Y-66627528D01*
X130295165Y-66668873D01*
X130296309Y-66668723D01*
X130296309Y-66668724D01*
X130296329Y-66668873D01*
X130300436Y-66700283D01*
X130301500Y-66716621D01*
X130301500Y-69432550D01*
X130281498Y-69500671D01*
X130227842Y-69547164D01*
X130157568Y-69557268D01*
X130092988Y-69527774D01*
X130067047Y-69496689D01*
X130048580Y-69465463D01*
X130048575Y-69465457D01*
X130044542Y-69458637D01*
X130030218Y-69444313D01*
X130017376Y-69429278D01*
X130005472Y-69412893D01*
X129971406Y-69384711D01*
X129962627Y-69376722D01*
X129621218Y-69035313D01*
X129587192Y-68973001D01*
X129589755Y-68909589D01*
X129600865Y-68873022D01*
X129602370Y-68868069D01*
X129631529Y-68646590D01*
X129633156Y-68580000D01*
X129614852Y-68357361D01*
X129560431Y-68140702D01*
X129471354Y-67935840D01*
X129350014Y-67748277D01*
X129199670Y-67583051D01*
X129195619Y-67579852D01*
X129195615Y-67579848D01*
X129028414Y-67447800D01*
X129028410Y-67447798D01*
X129024359Y-67444598D01*
X128988028Y-67424542D01*
X128972136Y-67415769D01*
X128828789Y-67336638D01*
X128823920Y-67334914D01*
X128823916Y-67334912D01*
X128623087Y-67263795D01*
X128623083Y-67263794D01*
X128618212Y-67262069D01*
X128613119Y-67261162D01*
X128613116Y-67261161D01*
X128403373Y-67223800D01*
X128403367Y-67223799D01*
X128398284Y-67222894D01*
X128324452Y-67221992D01*
X128180081Y-67220228D01*
X128180079Y-67220228D01*
X128174911Y-67220165D01*
X127954091Y-67253955D01*
X127741756Y-67323357D01*
X127543607Y-67426507D01*
X127539474Y-67429610D01*
X127539471Y-67429612D01*
X127515247Y-67447800D01*
X127364965Y-67560635D01*
X127210629Y-67722138D01*
X127103201Y-67879621D01*
X127048293Y-67924621D01*
X126977768Y-67932792D01*
X126914021Y-67901538D01*
X126893324Y-67877054D01*
X126812822Y-67752617D01*
X126812820Y-67752614D01*
X126810014Y-67748277D01*
X126659670Y-67583051D01*
X126655619Y-67579852D01*
X126655615Y-67579848D01*
X126488414Y-67447800D01*
X126488410Y-67447798D01*
X126484359Y-67444598D01*
X126448028Y-67424542D01*
X126432136Y-67415769D01*
X126288789Y-67336638D01*
X126283920Y-67334914D01*
X126283916Y-67334912D01*
X126083087Y-67263795D01*
X126083083Y-67263794D01*
X126078212Y-67262069D01*
X126073119Y-67261162D01*
X126073116Y-67261161D01*
X125863373Y-67223800D01*
X125863367Y-67223799D01*
X125858284Y-67222894D01*
X125784452Y-67221992D01*
X125640081Y-67220228D01*
X125640079Y-67220228D01*
X125634911Y-67220165D01*
X125414091Y-67253955D01*
X125201756Y-67323357D01*
X125003607Y-67426507D01*
X124999474Y-67429610D01*
X124999471Y-67429612D01*
X124975247Y-67447800D01*
X124824965Y-67560635D01*
X124670629Y-67722138D01*
X124563201Y-67879621D01*
X124508293Y-67924621D01*
X124437768Y-67932792D01*
X124374021Y-67901538D01*
X124353324Y-67877054D01*
X124272822Y-67752617D01*
X124272820Y-67752614D01*
X124270014Y-67748277D01*
X124119670Y-67583051D01*
X124115619Y-67579852D01*
X124115615Y-67579848D01*
X123948414Y-67447800D01*
X123948410Y-67447798D01*
X123944359Y-67444598D01*
X123908028Y-67424542D01*
X123892136Y-67415769D01*
X123748789Y-67336638D01*
X123743920Y-67334914D01*
X123743916Y-67334912D01*
X123543087Y-67263795D01*
X123543083Y-67263794D01*
X123538212Y-67262069D01*
X123533119Y-67261162D01*
X123533116Y-67261161D01*
X123323373Y-67223800D01*
X123323367Y-67223799D01*
X123318284Y-67222894D01*
X123244452Y-67221992D01*
X123100081Y-67220228D01*
X123100079Y-67220228D01*
X123094911Y-67220165D01*
X122874091Y-67253955D01*
X122661756Y-67323357D01*
X122463607Y-67426507D01*
X122459474Y-67429610D01*
X122459471Y-67429612D01*
X122435247Y-67447800D01*
X122284965Y-67560635D01*
X122130629Y-67722138D01*
X122023201Y-67879621D01*
X121968293Y-67924621D01*
X121897768Y-67932792D01*
X121834021Y-67901538D01*
X121813324Y-67877054D01*
X121732822Y-67752617D01*
X121732820Y-67752614D01*
X121730014Y-67748277D01*
X121579670Y-67583051D01*
X121575619Y-67579852D01*
X121575615Y-67579848D01*
X121408414Y-67447800D01*
X121408410Y-67447798D01*
X121404359Y-67444598D01*
X121368028Y-67424542D01*
X121352136Y-67415769D01*
X121208789Y-67336638D01*
X121203920Y-67334914D01*
X121203916Y-67334912D01*
X121003087Y-67263795D01*
X121003083Y-67263794D01*
X120998212Y-67262069D01*
X120993119Y-67261162D01*
X120993116Y-67261161D01*
X120783373Y-67223800D01*
X120783367Y-67223799D01*
X120778284Y-67222894D01*
X120704452Y-67221992D01*
X120560081Y-67220228D01*
X120560079Y-67220228D01*
X120554911Y-67220165D01*
X120334091Y-67253955D01*
X120121756Y-67323357D01*
X119923607Y-67426507D01*
X119919474Y-67429610D01*
X119919471Y-67429612D01*
X119895247Y-67447800D01*
X119744965Y-67560635D01*
X119590629Y-67722138D01*
X119483204Y-67879618D01*
X119482898Y-67880066D01*
X119427987Y-67925069D01*
X119357462Y-67933240D01*
X119293715Y-67901986D01*
X119273018Y-67877502D01*
X119192426Y-67752926D01*
X119186136Y-67744757D01*
X119042806Y-67587240D01*
X119035273Y-67580215D01*
X118868139Y-67448222D01*
X118859552Y-67442517D01*
X118673117Y-67339599D01*
X118663705Y-67335369D01*
X118462959Y-67264280D01*
X118452988Y-67261646D01*
X118381837Y-67248972D01*
X118368540Y-67250432D01*
X118364000Y-67264989D01*
X118364000Y-72438517D01*
X118368064Y-72452359D01*
X118381478Y-72454393D01*
X118388184Y-72453534D01*
X118398262Y-72451392D01*
X118602255Y-72390191D01*
X118611842Y-72386433D01*
X118803095Y-72292739D01*
X118811945Y-72287464D01*
X118985328Y-72163792D01*
X118993200Y-72157139D01*
X119144052Y-72006812D01*
X119150730Y-71998965D01*
X119278022Y-71821819D01*
X119279279Y-71822722D01*
X119326373Y-71779362D01*
X119396311Y-71767145D01*
X119461751Y-71794678D01*
X119489579Y-71826511D01*
X119549987Y-71925088D01*
X119696250Y-72093938D01*
X119868126Y-72236632D01*
X119872593Y-72239242D01*
X119954070Y-72286853D01*
X120002794Y-72338491D01*
X120016500Y-72395641D01*
X120016500Y-86045405D01*
X119996498Y-86113526D01*
X119979595Y-86134500D01*
X119154500Y-86959595D01*
X119092188Y-86993621D01*
X119065405Y-86996500D01*
X103084500Y-86996500D01*
X103016379Y-86976498D01*
X102969886Y-86922842D01*
X102958500Y-86870500D01*
X102958500Y-86731866D01*
X102951745Y-86669684D01*
X102900615Y-86533295D01*
X102813261Y-86416739D01*
X102696705Y-86329385D01*
X102560316Y-86278255D01*
X102498134Y-86271500D01*
X100701866Y-86271500D01*
X100639684Y-86278255D01*
X100503295Y-86329385D01*
X100386739Y-86416739D01*
X100299385Y-86533295D01*
X100248255Y-86669684D01*
X100241500Y-86731866D01*
X100241500Y-88528134D01*
X100248255Y-88590316D01*
X100299385Y-88726705D01*
X100386739Y-88843261D01*
X100503295Y-88930615D01*
X100511704Y-88933767D01*
X100511705Y-88933768D01*
X100620451Y-88974535D01*
X100677216Y-89017176D01*
X100701916Y-89083738D01*
X100686709Y-89153087D01*
X100667316Y-89179568D01*
X100540629Y-89312138D01*
X100414743Y-89496680D01*
X100320688Y-89699305D01*
X100260989Y-89914570D01*
X100237251Y-90136695D01*
X100237548Y-90141848D01*
X100237548Y-90141851D01*
X100243011Y-90236590D01*
X100250110Y-90359715D01*
X100251247Y-90364761D01*
X100251248Y-90364767D01*
X100271119Y-90452939D01*
X100299222Y-90577639D01*
X100359014Y-90724890D01*
X100376662Y-90768351D01*
X100383266Y-90784616D01*
X100499987Y-90975088D01*
X100646250Y-91143938D01*
X100818126Y-91286632D01*
X100888595Y-91327811D01*
X100891445Y-91329476D01*
X100940169Y-91381114D01*
X100953240Y-91450897D01*
X100926509Y-91516669D01*
X100886055Y-91550027D01*
X100873607Y-91556507D01*
X100869474Y-91559610D01*
X100869471Y-91559612D01*
X100845247Y-91577800D01*
X100694965Y-91690635D01*
X100540629Y-91852138D01*
X100537715Y-91856410D01*
X100537714Y-91856411D01*
X100519838Y-91882617D01*
X100414743Y-92036680D01*
X100320688Y-92239305D01*
X100260989Y-92454570D01*
X100237251Y-92676695D01*
X100237548Y-92681848D01*
X100237548Y-92681851D01*
X100247874Y-92860930D01*
X100250110Y-92899715D01*
X100251247Y-92904761D01*
X100251248Y-92904767D01*
X100268435Y-92981028D01*
X100299222Y-93117639D01*
X100359014Y-93264890D01*
X100376662Y-93308351D01*
X100383266Y-93324616D01*
X100499987Y-93515088D01*
X100646250Y-93683938D01*
X100818126Y-93826632D01*
X100891955Y-93869774D01*
X100940679Y-93921412D01*
X100953750Y-93991195D01*
X100927019Y-94056967D01*
X100886562Y-94090327D01*
X100878460Y-94094544D01*
X100869734Y-94100039D01*
X100849677Y-94115099D01*
X100841223Y-94126427D01*
X100847968Y-94138758D01*
X101587188Y-94877978D01*
X101601132Y-94885592D01*
X101602965Y-94885461D01*
X101609580Y-94881210D01*
X102353389Y-94137401D01*
X102360410Y-94124544D01*
X102353611Y-94115213D01*
X102349559Y-94112521D01*
X102312602Y-94092120D01*
X102262631Y-94041687D01*
X102247859Y-93972245D01*
X102272975Y-93905839D01*
X102300327Y-93879232D01*
X102323797Y-93862491D01*
X102479860Y-93751173D01*
X102638096Y-93593489D01*
X102697594Y-93510689D01*
X102765435Y-93416277D01*
X102768453Y-93412077D01*
X102770746Y-93407437D01*
X102772446Y-93404608D01*
X102824674Y-93356518D01*
X102880451Y-93343500D01*
X119301233Y-93343500D01*
X119312416Y-93344027D01*
X119319909Y-93345702D01*
X119327835Y-93345453D01*
X119327836Y-93345453D01*
X119387986Y-93343562D01*
X119391945Y-93343500D01*
X119419856Y-93343500D01*
X119423791Y-93343003D01*
X119423856Y-93342995D01*
X119435693Y-93342062D01*
X119467951Y-93341048D01*
X119471970Y-93340922D01*
X119479889Y-93340673D01*
X119499343Y-93335021D01*
X119518700Y-93331013D01*
X119530930Y-93329468D01*
X119530931Y-93329468D01*
X119538797Y-93328474D01*
X119546168Y-93325555D01*
X119546170Y-93325555D01*
X119579912Y-93312196D01*
X119591142Y-93308351D01*
X119625983Y-93298229D01*
X119625984Y-93298229D01*
X119633593Y-93296018D01*
X119640412Y-93291985D01*
X119640417Y-93291983D01*
X119651028Y-93285707D01*
X119668776Y-93277012D01*
X119687617Y-93269552D01*
X119723387Y-93243564D01*
X119733307Y-93237048D01*
X119764535Y-93218580D01*
X119764538Y-93218578D01*
X119771362Y-93214542D01*
X119785683Y-93200221D01*
X119800717Y-93187380D01*
X119810694Y-93180131D01*
X119817107Y-93175472D01*
X119845298Y-93141395D01*
X119853288Y-93132616D01*
X123582247Y-89403657D01*
X123590537Y-89396113D01*
X123597018Y-89392000D01*
X123608649Y-89379614D01*
X123669862Y-89343648D01*
X123740802Y-89346485D01*
X123798946Y-89387225D01*
X123825835Y-89452933D01*
X123826500Y-89465866D01*
X123826500Y-92631233D01*
X123825973Y-92642416D01*
X123824298Y-92649909D01*
X123824547Y-92657835D01*
X123824547Y-92657836D01*
X123826438Y-92717986D01*
X123826500Y-92721945D01*
X123826500Y-92749856D01*
X123826997Y-92753790D01*
X123826997Y-92753791D01*
X123827005Y-92753856D01*
X123827938Y-92765693D01*
X123829327Y-92809889D01*
X123834978Y-92829339D01*
X123838987Y-92848700D01*
X123841526Y-92868797D01*
X123844445Y-92876168D01*
X123844445Y-92876170D01*
X123857804Y-92909912D01*
X123861649Y-92921142D01*
X123873982Y-92963593D01*
X123878015Y-92970412D01*
X123878017Y-92970417D01*
X123884293Y-92981028D01*
X123892988Y-92998776D01*
X123900448Y-93017617D01*
X123905110Y-93024033D01*
X123905110Y-93024034D01*
X123926436Y-93053387D01*
X123932952Y-93063307D01*
X123955458Y-93101362D01*
X123969779Y-93115683D01*
X123982619Y-93130716D01*
X123994528Y-93147107D01*
X124028605Y-93175298D01*
X124037384Y-93183288D01*
X125649778Y-94795682D01*
X125683804Y-94857994D01*
X125682100Y-94918448D01*
X125660989Y-94994570D01*
X125660441Y-94999700D01*
X125660440Y-94999704D01*
X125656933Y-95032522D01*
X125637251Y-95216695D01*
X125637548Y-95221848D01*
X125637548Y-95221851D01*
X125643011Y-95316590D01*
X125650110Y-95439715D01*
X125651247Y-95444761D01*
X125651248Y-95444767D01*
X125671119Y-95532939D01*
X125699222Y-95657639D01*
X125783266Y-95864616D01*
X125899987Y-96055088D01*
X126046250Y-96223938D01*
X126218126Y-96366632D01*
X126229063Y-96373023D01*
X126291955Y-96409774D01*
X126340679Y-96461412D01*
X126353750Y-96531195D01*
X126327019Y-96596967D01*
X126286562Y-96630327D01*
X126278460Y-96634544D01*
X126269734Y-96640039D01*
X126249677Y-96655099D01*
X126241223Y-96666427D01*
X126247968Y-96678758D01*
X126987188Y-97417978D01*
X127001132Y-97425592D01*
X127002965Y-97425461D01*
X127009580Y-97421210D01*
X127753389Y-96677401D01*
X127760410Y-96664544D01*
X127753611Y-96655213D01*
X127749559Y-96652521D01*
X127712602Y-96632120D01*
X127662631Y-96581687D01*
X127647859Y-96512245D01*
X127672975Y-96445839D01*
X127700327Y-96419232D01*
X127765110Y-96373023D01*
X127879860Y-96291173D01*
X128038096Y-96133489D01*
X128097594Y-96050689D01*
X128165435Y-95956277D01*
X128168453Y-95952077D01*
X128170874Y-95947180D01*
X128265136Y-95756453D01*
X128265137Y-95756451D01*
X128267430Y-95751811D01*
X128332370Y-95538069D01*
X128361529Y-95316590D01*
X128363156Y-95250000D01*
X128344852Y-95027361D01*
X128290431Y-94810702D01*
X128201354Y-94605840D01*
X128080014Y-94418277D01*
X127929670Y-94253051D01*
X127925619Y-94249852D01*
X127925615Y-94249848D01*
X127758414Y-94117800D01*
X127758410Y-94117798D01*
X127754359Y-94114598D01*
X127713053Y-94091796D01*
X127663084Y-94041364D01*
X127648312Y-93971921D01*
X127673428Y-93905516D01*
X127700780Y-93878909D01*
X127744603Y-93847650D01*
X127879860Y-93751173D01*
X128038096Y-93593489D01*
X128097594Y-93510689D01*
X128165435Y-93416277D01*
X128168453Y-93412077D01*
X128172145Y-93404608D01*
X128265136Y-93216453D01*
X128265137Y-93216451D01*
X128267430Y-93211811D01*
X128332370Y-92998069D01*
X128361529Y-92776590D01*
X128361940Y-92759760D01*
X128363074Y-92713365D01*
X128363074Y-92713361D01*
X128363156Y-92710000D01*
X128344852Y-92487361D01*
X128290431Y-92270702D01*
X128201354Y-92065840D01*
X128080014Y-91878277D01*
X127929670Y-91713051D01*
X127925619Y-91709852D01*
X127925615Y-91709848D01*
X127758414Y-91577800D01*
X127758410Y-91577798D01*
X127754359Y-91574598D01*
X127713053Y-91551796D01*
X127663084Y-91501364D01*
X127648312Y-91431921D01*
X127673428Y-91365516D01*
X127700780Y-91338909D01*
X127744603Y-91307650D01*
X127879860Y-91211173D01*
X128038096Y-91053489D01*
X128097594Y-90970689D01*
X128165435Y-90876277D01*
X128168453Y-90872077D01*
X128172145Y-90864608D01*
X128265136Y-90676453D01*
X128265137Y-90676451D01*
X128267430Y-90671811D01*
X128332370Y-90458069D01*
X128361529Y-90236590D01*
X128363156Y-90170000D01*
X128344852Y-89947361D01*
X128290431Y-89730702D01*
X128201354Y-89525840D01*
X128080014Y-89338277D01*
X127929670Y-89173051D01*
X127925619Y-89169852D01*
X127925615Y-89169848D01*
X127758414Y-89037800D01*
X127758410Y-89037798D01*
X127754359Y-89034598D01*
X127713053Y-89011796D01*
X127663084Y-88961364D01*
X127648312Y-88891921D01*
X127673428Y-88825516D01*
X127700780Y-88798909D01*
X127791932Y-88733891D01*
X127879860Y-88671173D01*
X128038096Y-88513489D01*
X128168453Y-88332077D01*
X128173741Y-88321379D01*
X128265136Y-88136453D01*
X128265137Y-88136451D01*
X128267430Y-88131811D01*
X128332370Y-87918069D01*
X128361529Y-87696590D01*
X128363156Y-87630000D01*
X128344852Y-87407361D01*
X128290431Y-87190702D01*
X128201354Y-86985840D01*
X128080014Y-86798277D01*
X127929670Y-86633051D01*
X127925619Y-86629852D01*
X127925615Y-86629848D01*
X127758414Y-86497800D01*
X127758410Y-86497798D01*
X127754359Y-86494598D01*
X127749835Y-86492101D01*
X127749831Y-86492098D01*
X127698608Y-86463822D01*
X127648636Y-86413390D01*
X127633500Y-86353513D01*
X127633500Y-85912594D01*
X127653502Y-85844473D01*
X127670405Y-85823499D01*
X128662247Y-84831657D01*
X128670537Y-84824113D01*
X128677018Y-84820000D01*
X128688649Y-84807614D01*
X128749862Y-84771648D01*
X128820802Y-84774485D01*
X128878946Y-84815225D01*
X128905835Y-84880933D01*
X128906500Y-84893866D01*
X128906500Y-104034629D01*
X128886498Y-104102750D01*
X128832842Y-104149243D01*
X128762568Y-104159347D01*
X128697988Y-104129853D01*
X128691405Y-104123724D01*
X127795405Y-103227724D01*
X127761379Y-103165412D01*
X127758500Y-103138629D01*
X127758500Y-101522632D01*
X127778502Y-101454511D01*
X127811331Y-101420054D01*
X127879860Y-101371173D01*
X128038096Y-101213489D01*
X128097594Y-101130689D01*
X128165435Y-101036277D01*
X128168453Y-101032077D01*
X128178095Y-101012569D01*
X128265136Y-100836453D01*
X128265137Y-100836451D01*
X128267430Y-100831811D01*
X128332370Y-100618069D01*
X128361529Y-100396590D01*
X128363156Y-100330000D01*
X128344852Y-100107361D01*
X128290431Y-99890702D01*
X128201354Y-99685840D01*
X128127384Y-99571500D01*
X128082822Y-99502617D01*
X128082820Y-99502614D01*
X128080014Y-99498277D01*
X127929670Y-99333051D01*
X127925619Y-99329852D01*
X127925615Y-99329848D01*
X127758414Y-99197800D01*
X127758410Y-99197798D01*
X127754359Y-99194598D01*
X127712569Y-99171529D01*
X127662598Y-99121097D01*
X127647826Y-99051654D01*
X127672942Y-98985248D01*
X127700293Y-98958642D01*
X127749247Y-98923723D01*
X127757648Y-98913023D01*
X127750660Y-98899870D01*
X127012812Y-98162022D01*
X126998868Y-98154408D01*
X126997035Y-98154539D01*
X126990420Y-98158790D01*
X126246737Y-98902473D01*
X126239977Y-98914853D01*
X126245258Y-98921907D01*
X126291969Y-98949203D01*
X126340693Y-99000841D01*
X126353764Y-99070624D01*
X126327033Y-99136396D01*
X126286584Y-99169752D01*
X126273607Y-99176507D01*
X126269474Y-99179610D01*
X126269471Y-99179612D01*
X126245247Y-99197800D01*
X126094965Y-99310635D01*
X125940629Y-99472138D01*
X125910363Y-99516507D01*
X125855455Y-99561507D01*
X125806277Y-99571500D01*
X112126371Y-99571500D01*
X112058250Y-99551498D01*
X112037276Y-99534595D01*
X110264544Y-97761863D01*
X125638050Y-97761863D01*
X125650309Y-97974477D01*
X125651745Y-97984697D01*
X125698565Y-98192446D01*
X125701645Y-98202275D01*
X125781770Y-98399603D01*
X125786413Y-98408794D01*
X125866460Y-98539420D01*
X125876916Y-98548880D01*
X125885694Y-98545096D01*
X126627978Y-97802812D01*
X126634356Y-97791132D01*
X127364408Y-97791132D01*
X127364539Y-97792965D01*
X127368790Y-97799580D01*
X128110474Y-98541264D01*
X128122484Y-98547823D01*
X128134223Y-98538855D01*
X128165004Y-98496019D01*
X128170315Y-98487180D01*
X128264670Y-98296267D01*
X128268469Y-98286672D01*
X128330376Y-98082915D01*
X128332555Y-98072834D01*
X128360590Y-97859887D01*
X128361109Y-97853212D01*
X128362572Y-97793364D01*
X128362378Y-97786646D01*
X128344781Y-97572604D01*
X128343096Y-97562424D01*
X128291214Y-97355875D01*
X128287894Y-97346124D01*
X128202972Y-97150814D01*
X128198105Y-97141739D01*
X128133063Y-97041197D01*
X128122377Y-97031995D01*
X128112812Y-97036398D01*
X127372022Y-97777188D01*
X127364408Y-97791132D01*
X126634356Y-97791132D01*
X126635592Y-97788868D01*
X126635461Y-97787035D01*
X126631210Y-97780420D01*
X125889849Y-97039059D01*
X125878313Y-97032759D01*
X125866031Y-97042382D01*
X125818089Y-97112662D01*
X125813004Y-97121613D01*
X125723338Y-97314783D01*
X125719775Y-97324470D01*
X125662864Y-97529681D01*
X125660933Y-97539800D01*
X125638302Y-97751574D01*
X125638050Y-97761863D01*
X110264544Y-97761863D01*
X109803770Y-97301089D01*
X109791384Y-97286677D01*
X109782851Y-97275082D01*
X109782846Y-97275077D01*
X109778508Y-97269182D01*
X109772930Y-97264443D01*
X109772927Y-97264440D01*
X109738232Y-97234965D01*
X109730716Y-97228035D01*
X109725021Y-97222340D01*
X109718880Y-97217482D01*
X109702749Y-97204719D01*
X109699345Y-97201928D01*
X109649297Y-97159409D01*
X109649295Y-97159408D01*
X109643715Y-97154667D01*
X109637199Y-97151339D01*
X109632150Y-97147972D01*
X109627021Y-97144805D01*
X109621284Y-97140266D01*
X109555125Y-97109345D01*
X109551225Y-97107439D01*
X109486192Y-97074231D01*
X109479084Y-97072492D01*
X109473441Y-97070393D01*
X109467678Y-97068476D01*
X109461050Y-97065378D01*
X109389583Y-97050513D01*
X109385299Y-97049543D01*
X109351191Y-97041197D01*
X109314390Y-97032192D01*
X109308788Y-97031844D01*
X109308785Y-97031844D01*
X109303236Y-97031500D01*
X109303238Y-97031464D01*
X109299245Y-97031225D01*
X109295053Y-97030851D01*
X109287885Y-97029360D01*
X109221675Y-97031151D01*
X109210479Y-97031454D01*
X109207072Y-97031500D01*
X102795939Y-97031500D01*
X102727818Y-97011498D01*
X102690147Y-96973941D01*
X102682818Y-96962612D01*
X102680014Y-96958277D01*
X102529670Y-96793051D01*
X102525619Y-96789852D01*
X102525615Y-96789848D01*
X102358414Y-96657800D01*
X102358410Y-96657798D01*
X102354359Y-96654598D01*
X102312569Y-96631529D01*
X102262598Y-96581097D01*
X102247826Y-96511654D01*
X102272942Y-96445248D01*
X102300293Y-96418642D01*
X102349247Y-96383723D01*
X102357648Y-96373023D01*
X102350660Y-96359870D01*
X101612812Y-95622022D01*
X101598868Y-95614408D01*
X101597035Y-95614539D01*
X101590420Y-95618790D01*
X100846737Y-96362473D01*
X100839977Y-96374853D01*
X100845258Y-96381907D01*
X100891969Y-96409203D01*
X100940693Y-96460841D01*
X100953764Y-96530624D01*
X100927033Y-96596396D01*
X100886584Y-96629752D01*
X100873607Y-96636507D01*
X100869474Y-96639610D01*
X100869471Y-96639612D01*
X100699100Y-96767530D01*
X100694965Y-96770635D01*
X100540629Y-96932138D01*
X100414743Y-97116680D01*
X100403795Y-97140266D01*
X100329144Y-97301089D01*
X100320688Y-97319305D01*
X100260989Y-97534570D01*
X100237251Y-97756695D01*
X100237548Y-97761848D01*
X100237548Y-97761851D01*
X100239910Y-97802812D01*
X100250110Y-97979715D01*
X100251247Y-97984761D01*
X100251248Y-97984767D01*
X100273367Y-98082915D01*
X100299222Y-98197639D01*
X100383266Y-98404616D01*
X100499987Y-98595088D01*
X100646250Y-98763938D01*
X100818126Y-98906632D01*
X100829063Y-98913023D01*
X100891445Y-98949476D01*
X100940169Y-99001114D01*
X100953240Y-99070897D01*
X100926509Y-99136669D01*
X100886055Y-99170027D01*
X100873607Y-99176507D01*
X100869474Y-99179610D01*
X100869471Y-99179612D01*
X100845247Y-99197800D01*
X100694965Y-99310635D01*
X100540629Y-99472138D01*
X100537720Y-99476403D01*
X100537714Y-99476411D01*
X100498024Y-99534595D01*
X100414743Y-99656680D01*
X100320688Y-99859305D01*
X100260989Y-100074570D01*
X100237251Y-100296695D01*
X100237548Y-100301848D01*
X100237548Y-100301851D01*
X100243011Y-100396590D01*
X100250110Y-100519715D01*
X100251247Y-100524761D01*
X100251248Y-100524767D01*
X100271119Y-100612939D01*
X100299222Y-100737639D01*
X100383266Y-100944616D01*
X100399693Y-100971423D01*
X100447603Y-101049604D01*
X100499987Y-101135088D01*
X100646250Y-101303938D01*
X100795985Y-101428250D01*
X100835620Y-101487152D01*
X100841500Y-101525194D01*
X100841500Y-102503629D01*
X100821498Y-102571750D01*
X100804595Y-102592724D01*
X99206089Y-104191230D01*
X99191677Y-104203616D01*
X99180082Y-104212149D01*
X99180077Y-104212154D01*
X99174182Y-104216492D01*
X99169443Y-104222070D01*
X99169440Y-104222073D01*
X99139965Y-104256768D01*
X99133035Y-104264284D01*
X99127340Y-104269979D01*
X99125060Y-104272861D01*
X99109719Y-104292251D01*
X99106928Y-104295655D01*
X99064409Y-104345703D01*
X99059667Y-104351285D01*
X99056339Y-104357801D01*
X99052972Y-104362850D01*
X99049805Y-104367979D01*
X99045266Y-104373716D01*
X99014345Y-104439875D01*
X99012442Y-104443769D01*
X98979231Y-104508808D01*
X98977492Y-104515916D01*
X98975393Y-104521559D01*
X98973476Y-104527322D01*
X98970378Y-104533950D01*
X98968888Y-104541112D01*
X98968888Y-104541113D01*
X98955514Y-104605412D01*
X98954544Y-104609696D01*
X98937192Y-104680610D01*
X98936500Y-104691764D01*
X98936464Y-104691762D01*
X98936225Y-104695755D01*
X98935851Y-104699947D01*
X98934360Y-104707115D01*
X98934558Y-104714432D01*
X98936454Y-104784521D01*
X98936500Y-104787928D01*
X98936500Y-127567930D01*
X98935067Y-127586880D01*
X98931801Y-127608349D01*
X98932394Y-127615641D01*
X98932394Y-127615644D01*
X98936085Y-127661018D01*
X98936500Y-127671233D01*
X98936500Y-127679293D01*
X98936925Y-127682937D01*
X98939789Y-127707507D01*
X98940222Y-127711882D01*
X98946140Y-127784637D01*
X98948396Y-127791601D01*
X98949587Y-127797560D01*
X98950971Y-127803415D01*
X98951818Y-127810681D01*
X98976735Y-127879327D01*
X98978152Y-127883455D01*
X98990135Y-127920443D01*
X99000649Y-127952899D01*
X99004445Y-127959154D01*
X99006951Y-127964628D01*
X99009670Y-127970058D01*
X99012167Y-127976937D01*
X99016180Y-127983057D01*
X99016180Y-127983058D01*
X99052186Y-128037976D01*
X99054523Y-128041680D01*
X99092405Y-128104107D01*
X99096121Y-128108315D01*
X99096122Y-128108316D01*
X99099803Y-128112484D01*
X99099776Y-128112508D01*
X99102429Y-128115500D01*
X99105132Y-128118733D01*
X99109144Y-128124852D01*
X99147832Y-128161502D01*
X99165383Y-128178128D01*
X99167825Y-128180506D01*
X102286230Y-131298911D01*
X102298616Y-131313323D01*
X102307149Y-131324918D01*
X102307154Y-131324923D01*
X102311492Y-131330818D01*
X102317070Y-131335557D01*
X102317073Y-131335560D01*
X102351768Y-131365035D01*
X102359284Y-131371965D01*
X102364979Y-131377660D01*
X102367861Y-131379940D01*
X102387251Y-131395281D01*
X102390655Y-131398072D01*
X102440703Y-131440591D01*
X102446285Y-131445333D01*
X102452801Y-131448661D01*
X102457850Y-131452028D01*
X102462979Y-131455195D01*
X102468716Y-131459734D01*
X102534875Y-131490655D01*
X102538769Y-131492558D01*
X102603808Y-131525769D01*
X102610916Y-131527508D01*
X102616559Y-131529607D01*
X102622322Y-131531524D01*
X102628950Y-131534622D01*
X102636112Y-131536112D01*
X102636113Y-131536112D01*
X102700412Y-131549486D01*
X102704696Y-131550456D01*
X102775610Y-131567808D01*
X102781212Y-131568156D01*
X102781215Y-131568156D01*
X102786764Y-131568500D01*
X102786762Y-131568536D01*
X102790755Y-131568775D01*
X102794947Y-131569149D01*
X102802115Y-131570640D01*
X102879520Y-131568546D01*
X102882928Y-131568500D01*
X124093629Y-131568500D01*
X124161750Y-131588502D01*
X124182724Y-131605405D01*
X124934595Y-132357276D01*
X124968621Y-132419588D01*
X124971500Y-132446371D01*
X124971500Y-134697655D01*
X124951498Y-134765776D01*
X124921153Y-134798415D01*
X124829100Y-134867530D01*
X124824965Y-134870635D01*
X124670629Y-135032138D01*
X124544743Y-135216680D01*
X124450688Y-135419305D01*
X124390989Y-135634570D01*
X124367251Y-135856695D01*
X124367548Y-135861848D01*
X124367548Y-135861851D01*
X124374250Y-135978077D01*
X124380110Y-136079715D01*
X124381247Y-136084761D01*
X124381248Y-136084767D01*
X124396070Y-136150535D01*
X124429222Y-136297639D01*
X124467461Y-136391811D01*
X124502657Y-136478488D01*
X124513266Y-136504616D01*
X124515965Y-136509020D01*
X124625599Y-136687927D01*
X124629987Y-136695088D01*
X124776250Y-136863938D01*
X124780225Y-136867238D01*
X124780231Y-136867244D01*
X124785425Y-136871556D01*
X124825059Y-136930460D01*
X124826555Y-137001441D01*
X124789439Y-137061962D01*
X124749168Y-137086480D01*
X124641946Y-137126676D01*
X124626351Y-137135214D01*
X124524276Y-137211715D01*
X124511715Y-137224276D01*
X124435214Y-137326351D01*
X124426676Y-137341946D01*
X124381522Y-137462394D01*
X124377895Y-137477649D01*
X124372369Y-137528514D01*
X124372000Y-137535328D01*
X124372000Y-138157885D01*
X124376475Y-138173124D01*
X124377865Y-138174329D01*
X124385548Y-138176000D01*
X127069884Y-138176000D01*
X127085123Y-138171525D01*
X127086328Y-138170135D01*
X127087999Y-138162452D01*
X127087999Y-137535331D01*
X127087629Y-137528510D01*
X127082105Y-137477648D01*
X127078479Y-137462396D01*
X127033324Y-137341946D01*
X127024786Y-137326351D01*
X126948285Y-137224276D01*
X126935724Y-137211715D01*
X126833649Y-137135214D01*
X126818054Y-137126676D01*
X126707813Y-137085348D01*
X126651049Y-137042706D01*
X126626349Y-136976145D01*
X126641557Y-136906796D01*
X126663104Y-136878115D01*
X126764430Y-136777144D01*
X126764440Y-136777132D01*
X126768096Y-136773489D01*
X126776049Y-136762422D01*
X126895435Y-136596277D01*
X126898453Y-136592077D01*
X126997430Y-136391811D01*
X127062370Y-136178069D01*
X127091529Y-135956590D01*
X127091611Y-135953240D01*
X127093074Y-135893365D01*
X127093074Y-135893361D01*
X127093156Y-135890000D01*
X127074852Y-135667361D01*
X127020431Y-135450702D01*
X126931354Y-135245840D01*
X126810014Y-135058277D01*
X126659670Y-134893051D01*
X126536407Y-134795703D01*
X126495345Y-134737785D01*
X126488500Y-134696821D01*
X126488500Y-132147069D01*
X126489933Y-132128118D01*
X126492099Y-132113883D01*
X126492099Y-132113881D01*
X126493199Y-132106651D01*
X126488915Y-132053982D01*
X126488500Y-132043767D01*
X126488500Y-132035707D01*
X126485211Y-132007493D01*
X126484778Y-132003118D01*
X126479454Y-131937661D01*
X126479453Y-131937658D01*
X126478860Y-131930363D01*
X126476604Y-131923399D01*
X126475413Y-131917440D01*
X126474029Y-131911585D01*
X126473182Y-131904319D01*
X126448265Y-131835673D01*
X126446848Y-131831545D01*
X126426607Y-131769064D01*
X126426606Y-131769062D01*
X126424351Y-131762101D01*
X126420555Y-131755846D01*
X126418049Y-131750372D01*
X126415330Y-131744942D01*
X126412833Y-131738063D01*
X126372809Y-131677016D01*
X126370472Y-131673312D01*
X126335509Y-131615693D01*
X126335505Y-131615688D01*
X126332595Y-131610892D01*
X126325197Y-131602516D01*
X126325223Y-131602493D01*
X126322574Y-131599503D01*
X126319866Y-131596264D01*
X126315856Y-131590148D01*
X126310549Y-131585121D01*
X126310546Y-131585117D01*
X126259617Y-131536872D01*
X126257175Y-131534494D01*
X125043770Y-130321089D01*
X125031384Y-130306677D01*
X125022851Y-130295082D01*
X125022846Y-130295077D01*
X125018508Y-130289182D01*
X125012930Y-130284443D01*
X125012927Y-130284440D01*
X124978232Y-130254965D01*
X124970716Y-130248035D01*
X124965021Y-130242340D01*
X124958880Y-130237482D01*
X124942749Y-130224719D01*
X124939345Y-130221928D01*
X124889297Y-130179409D01*
X124889295Y-130179408D01*
X124883715Y-130174667D01*
X124877199Y-130171339D01*
X124872150Y-130167972D01*
X124867021Y-130164805D01*
X124861284Y-130160266D01*
X124795125Y-130129345D01*
X124791225Y-130127439D01*
X124726192Y-130094231D01*
X124719084Y-130092492D01*
X124713441Y-130090393D01*
X124707678Y-130088476D01*
X124701050Y-130085378D01*
X124629583Y-130070513D01*
X124625299Y-130069543D01*
X124554390Y-130052192D01*
X124548788Y-130051844D01*
X124548785Y-130051844D01*
X124543236Y-130051500D01*
X124543238Y-130051464D01*
X124539245Y-130051225D01*
X124535053Y-130050851D01*
X124527885Y-130049360D01*
X124461675Y-130051151D01*
X124450479Y-130051454D01*
X124447072Y-130051500D01*
X123576204Y-130051500D01*
X123508083Y-130031498D01*
X123461590Y-129977842D01*
X123451486Y-129907568D01*
X123466420Y-129866355D01*
X123465817Y-129866074D01*
X123475056Y-129846259D01*
X123525315Y-129694734D01*
X123528181Y-129681368D01*
X123537672Y-129588730D01*
X123538000Y-129582315D01*
X123538000Y-129558115D01*
X123533525Y-129542876D01*
X123532135Y-129541671D01*
X123524452Y-129540000D01*
X121590115Y-129540000D01*
X121574876Y-129544475D01*
X121573671Y-129545865D01*
X121572000Y-129553548D01*
X121572000Y-129582266D01*
X121572337Y-129588782D01*
X121582075Y-129682632D01*
X121584968Y-129696028D01*
X121635488Y-129847453D01*
X121644759Y-129867245D01*
X121643194Y-129867978D01*
X121659613Y-129927657D01*
X121638447Y-129995425D01*
X121584003Y-130040993D01*
X121533631Y-130051500D01*
X103236371Y-130051500D01*
X103168250Y-130031498D01*
X103147276Y-130014595D01*
X100490405Y-127357724D01*
X100456379Y-127295412D01*
X100453500Y-127268629D01*
X100453500Y-119869885D01*
X100877000Y-119869885D01*
X100881475Y-119885124D01*
X100882865Y-119886329D01*
X100890548Y-119888000D01*
X101962885Y-119888000D01*
X101978124Y-119883525D01*
X101979329Y-119882135D01*
X101981000Y-119874452D01*
X101981000Y-119869885D01*
X102489000Y-119869885D01*
X102493475Y-119885124D01*
X102494865Y-119886329D01*
X102502548Y-119888000D01*
X103574884Y-119888000D01*
X103590123Y-119883525D01*
X103591328Y-119882135D01*
X103592999Y-119874452D01*
X103592999Y-119247331D01*
X103592629Y-119240510D01*
X103587105Y-119189648D01*
X103583479Y-119174396D01*
X103538324Y-119053946D01*
X103529786Y-119038351D01*
X103514854Y-119018427D01*
X109096223Y-119018427D01*
X109102968Y-119030758D01*
X109842188Y-119769978D01*
X109856132Y-119777592D01*
X109857965Y-119777461D01*
X109864580Y-119773210D01*
X110608389Y-119029401D01*
X110615410Y-119016544D01*
X110608611Y-119007213D01*
X110604554Y-119004518D01*
X110418117Y-118901599D01*
X110408705Y-118897369D01*
X110207959Y-118826280D01*
X110197989Y-118823646D01*
X109988327Y-118786301D01*
X109978073Y-118785331D01*
X109765116Y-118782728D01*
X109754832Y-118783448D01*
X109544321Y-118815661D01*
X109534293Y-118818050D01*
X109331868Y-118884212D01*
X109322359Y-118888209D01*
X109133466Y-118986540D01*
X109124734Y-118992039D01*
X109104677Y-119007099D01*
X109096223Y-119018427D01*
X103514854Y-119018427D01*
X103453285Y-118936276D01*
X103440724Y-118923715D01*
X103338649Y-118847214D01*
X103323054Y-118838676D01*
X103202606Y-118793522D01*
X103187351Y-118789895D01*
X103136486Y-118784369D01*
X103129672Y-118784000D01*
X102507115Y-118784000D01*
X102491876Y-118788475D01*
X102490671Y-118789865D01*
X102489000Y-118797548D01*
X102489000Y-119869885D01*
X101981000Y-119869885D01*
X101981000Y-118802116D01*
X101976525Y-118786877D01*
X101975135Y-118785672D01*
X101967452Y-118784001D01*
X101340331Y-118784001D01*
X101333510Y-118784371D01*
X101282648Y-118789895D01*
X101267396Y-118793521D01*
X101146946Y-118838676D01*
X101131351Y-118847214D01*
X101029276Y-118923715D01*
X101016715Y-118936276D01*
X100940214Y-119038351D01*
X100931676Y-119053946D01*
X100886522Y-119174394D01*
X100882895Y-119189649D01*
X100877369Y-119240514D01*
X100877000Y-119247328D01*
X100877000Y-119869885D01*
X100453500Y-119869885D01*
X100453500Y-114075766D01*
X125499500Y-114075766D01*
X125499837Y-114082282D01*
X125509575Y-114176132D01*
X125512468Y-114189528D01*
X125562988Y-114340953D01*
X125569153Y-114354115D01*
X125652926Y-114489492D01*
X125661960Y-114500890D01*
X125774629Y-114613363D01*
X125786040Y-114622375D01*
X125921563Y-114705912D01*
X125934741Y-114712056D01*
X126086266Y-114762315D01*
X126099632Y-114765181D01*
X126192270Y-114774672D01*
X126198685Y-114775000D01*
X126272885Y-114775000D01*
X126288124Y-114770525D01*
X126289329Y-114769135D01*
X126291000Y-114761452D01*
X126291000Y-114064115D01*
X126286525Y-114048876D01*
X126285135Y-114047671D01*
X126277452Y-114046000D01*
X125517615Y-114046000D01*
X125502376Y-114050475D01*
X125501171Y-114051865D01*
X125499500Y-114059548D01*
X125499500Y-114075766D01*
X100453500Y-114075766D01*
X100453500Y-113519885D01*
X125499500Y-113519885D01*
X125503975Y-113535124D01*
X125505365Y-113536329D01*
X125513048Y-113538000D01*
X126272885Y-113538000D01*
X126288124Y-113533525D01*
X126289329Y-113532135D01*
X126291000Y-113524452D01*
X126291000Y-112827115D01*
X126286525Y-112811876D01*
X126285135Y-112810671D01*
X126277452Y-112809000D01*
X126198734Y-112809000D01*
X126192218Y-112809337D01*
X126098368Y-112819075D01*
X126084972Y-112821968D01*
X125933547Y-112872488D01*
X125920385Y-112878653D01*
X125785008Y-112962426D01*
X125773610Y-112971460D01*
X125661137Y-113084129D01*
X125652125Y-113095540D01*
X125568588Y-113231063D01*
X125562444Y-113244241D01*
X125512185Y-113395766D01*
X125509319Y-113409132D01*
X125499828Y-113501770D01*
X125499500Y-113508185D01*
X125499500Y-113519885D01*
X100453500Y-113519885D01*
X100453500Y-105141371D01*
X100473502Y-105073250D01*
X100490405Y-105052276D01*
X102088907Y-103453773D01*
X102103319Y-103441387D01*
X102114917Y-103432851D01*
X102114919Y-103432850D01*
X102120818Y-103428508D01*
X102125557Y-103422930D01*
X102125560Y-103422927D01*
X102155041Y-103388225D01*
X102161971Y-103380709D01*
X102167660Y-103375020D01*
X102169918Y-103372166D01*
X102169927Y-103372156D01*
X102185274Y-103352758D01*
X102188062Y-103349358D01*
X102230595Y-103299293D01*
X102230598Y-103299289D01*
X102235333Y-103293715D01*
X102238660Y-103287200D01*
X102242019Y-103282163D01*
X102245192Y-103277025D01*
X102249734Y-103271284D01*
X102280655Y-103205125D01*
X102282561Y-103201225D01*
X102300848Y-103165412D01*
X102315769Y-103136192D01*
X102317508Y-103129083D01*
X102319604Y-103123449D01*
X102321523Y-103117679D01*
X102324622Y-103111050D01*
X102339491Y-103039565D01*
X102340461Y-103035282D01*
X102356473Y-102969844D01*
X102357808Y-102964390D01*
X102358500Y-102953236D01*
X102358535Y-102953238D01*
X102358775Y-102949266D01*
X102359152Y-102945045D01*
X102360641Y-102937885D01*
X102358546Y-102860458D01*
X102358500Y-102857050D01*
X102358500Y-101522632D01*
X102378502Y-101454511D01*
X102411331Y-101420054D01*
X102479860Y-101371173D01*
X102638096Y-101213489D01*
X102697594Y-101130689D01*
X102765435Y-101036277D01*
X102768453Y-101032077D01*
X102778095Y-101012569D01*
X102865136Y-100836453D01*
X102865137Y-100836451D01*
X102867430Y-100831811D01*
X102932370Y-100618069D01*
X102961529Y-100396590D01*
X102963156Y-100330000D01*
X102944852Y-100107361D01*
X102890431Y-99890702D01*
X102801354Y-99685840D01*
X102727384Y-99571500D01*
X102682822Y-99502617D01*
X102682820Y-99502614D01*
X102680014Y-99498277D01*
X102529670Y-99333051D01*
X102525619Y-99329852D01*
X102525615Y-99329848D01*
X102358414Y-99197800D01*
X102358410Y-99197798D01*
X102354359Y-99194598D01*
X102313053Y-99171796D01*
X102263084Y-99121364D01*
X102248312Y-99051921D01*
X102273428Y-98985516D01*
X102300780Y-98958909D01*
X102365110Y-98913023D01*
X102479860Y-98831173D01*
X102638096Y-98673489D01*
X102690203Y-98600974D01*
X102746198Y-98557326D01*
X102792526Y-98548500D01*
X108853629Y-98548500D01*
X108921750Y-98568502D01*
X108942724Y-98585405D01*
X111176230Y-100818911D01*
X111188616Y-100833323D01*
X111197149Y-100844918D01*
X111197154Y-100844923D01*
X111201492Y-100850818D01*
X111207070Y-100855557D01*
X111207073Y-100855560D01*
X111241768Y-100885035D01*
X111249284Y-100891965D01*
X111254979Y-100897660D01*
X111257861Y-100899940D01*
X111277251Y-100915281D01*
X111280655Y-100918072D01*
X111330703Y-100960591D01*
X111336285Y-100965333D01*
X111342801Y-100968661D01*
X111347838Y-100972020D01*
X111352977Y-100975194D01*
X111358716Y-100979734D01*
X111365349Y-100982834D01*
X111424837Y-101010636D01*
X111428791Y-101012569D01*
X111493808Y-101045769D01*
X111500924Y-101047510D01*
X111506554Y-101049604D01*
X111512321Y-101051523D01*
X111518950Y-101054621D01*
X111526110Y-101056110D01*
X111526112Y-101056111D01*
X111590396Y-101069482D01*
X111594680Y-101070452D01*
X111665610Y-101087808D01*
X111671212Y-101088156D01*
X111671215Y-101088156D01*
X111676764Y-101088500D01*
X111676762Y-101088536D01*
X111680752Y-101088775D01*
X111684950Y-101089150D01*
X111692115Y-101090640D01*
X111769520Y-101088546D01*
X111772928Y-101088500D01*
X125802491Y-101088500D01*
X125870612Y-101108502D01*
X125899402Y-101135595D01*
X125899987Y-101135088D01*
X126046250Y-101303938D01*
X126195985Y-101428250D01*
X126235620Y-101487152D01*
X126241500Y-101525194D01*
X126241500Y-103437930D01*
X126240067Y-103456880D01*
X126236801Y-103478349D01*
X126237394Y-103485641D01*
X126237394Y-103485644D01*
X126241085Y-103531018D01*
X126241500Y-103541233D01*
X126241500Y-103549293D01*
X126241925Y-103552937D01*
X126244789Y-103577507D01*
X126245222Y-103581882D01*
X126251140Y-103654637D01*
X126253396Y-103661601D01*
X126254587Y-103667560D01*
X126255971Y-103673415D01*
X126256818Y-103680681D01*
X126281735Y-103749327D01*
X126283152Y-103753455D01*
X126305649Y-103822899D01*
X126309445Y-103829154D01*
X126311951Y-103834628D01*
X126314670Y-103840058D01*
X126317167Y-103846937D01*
X126321180Y-103853057D01*
X126321180Y-103853058D01*
X126357186Y-103907976D01*
X126359523Y-103911680D01*
X126397405Y-103974107D01*
X126401121Y-103978315D01*
X126401122Y-103978316D01*
X126404803Y-103982484D01*
X126404776Y-103982508D01*
X126407429Y-103985500D01*
X126410132Y-103988733D01*
X126414144Y-103994852D01*
X126419456Y-103999884D01*
X126470383Y-104048128D01*
X126472825Y-104050506D01*
X127474595Y-105052276D01*
X127508621Y-105114588D01*
X127511500Y-105141371D01*
X127511500Y-112865466D01*
X127491498Y-112933587D01*
X127437842Y-112980080D01*
X127367568Y-112990184D01*
X127307409Y-112964349D01*
X127303960Y-112961625D01*
X127168437Y-112878088D01*
X127155259Y-112871944D01*
X127003734Y-112821685D01*
X126990368Y-112818819D01*
X126897730Y-112809328D01*
X126891315Y-112809000D01*
X126817115Y-112809000D01*
X126801876Y-112813475D01*
X126800671Y-112814865D01*
X126799000Y-112822548D01*
X126799000Y-114756885D01*
X126803475Y-114772124D01*
X126804865Y-114773329D01*
X126812548Y-114775000D01*
X126891266Y-114775000D01*
X126897782Y-114774663D01*
X126991632Y-114764925D01*
X127005028Y-114762032D01*
X127156453Y-114711512D01*
X127169615Y-114705347D01*
X127304988Y-114621576D01*
X127307234Y-114619796D01*
X127309058Y-114619058D01*
X127311218Y-114617721D01*
X127311447Y-114618091D01*
X127373044Y-114593158D01*
X127442809Y-114606328D01*
X127494378Y-114655125D01*
X127511500Y-114718541D01*
X127511500Y-119262552D01*
X127491498Y-119330673D01*
X127437842Y-119377166D01*
X127367944Y-119387323D01*
X127338995Y-119383250D01*
X127327812Y-119388398D01*
X126587022Y-120129188D01*
X126579408Y-120143132D01*
X126579539Y-120144965D01*
X126583790Y-120151580D01*
X127325474Y-120893264D01*
X127339418Y-120900878D01*
X127368253Y-120898816D01*
X127375281Y-120896116D01*
X127444800Y-120910527D01*
X127495491Y-120960236D01*
X127511500Y-121021701D01*
X127511500Y-121299629D01*
X127491498Y-121367750D01*
X127474595Y-121388724D01*
X127242684Y-121620635D01*
X127180372Y-121654661D01*
X127109557Y-121649596D01*
X127075499Y-121630423D01*
X126969359Y-121546598D01*
X126927569Y-121523529D01*
X126877598Y-121473097D01*
X126862826Y-121403654D01*
X126887942Y-121337248D01*
X126915293Y-121310642D01*
X126964247Y-121275723D01*
X126972648Y-121265023D01*
X126965660Y-121251870D01*
X126227812Y-120514022D01*
X126213868Y-120506408D01*
X126212035Y-120506539D01*
X126205420Y-120510790D01*
X125461737Y-121254473D01*
X125454977Y-121266853D01*
X125460258Y-121273907D01*
X125506969Y-121301203D01*
X125555693Y-121352841D01*
X125568764Y-121422624D01*
X125542033Y-121488396D01*
X125501584Y-121521752D01*
X125488607Y-121528507D01*
X125484474Y-121531610D01*
X125484471Y-121531612D01*
X125360567Y-121624642D01*
X125309965Y-121662635D01*
X125155629Y-121824138D01*
X125125363Y-121868507D01*
X125070455Y-121913507D01*
X125021277Y-121923500D01*
X123810371Y-121923500D01*
X123742250Y-121903498D01*
X123721276Y-121886595D01*
X121948544Y-120113863D01*
X124853050Y-120113863D01*
X124865309Y-120326477D01*
X124866745Y-120336697D01*
X124913565Y-120544446D01*
X124916645Y-120554275D01*
X124996770Y-120751603D01*
X125001413Y-120760794D01*
X125081460Y-120891420D01*
X125091916Y-120900880D01*
X125100694Y-120897096D01*
X125842978Y-120154812D01*
X125850592Y-120140868D01*
X125850461Y-120139035D01*
X125846210Y-120132420D01*
X125104849Y-119391059D01*
X125093313Y-119384759D01*
X125081031Y-119394382D01*
X125033089Y-119464662D01*
X125028004Y-119473613D01*
X124938338Y-119666783D01*
X124934775Y-119676470D01*
X124877864Y-119881681D01*
X124875933Y-119891800D01*
X124853302Y-120103574D01*
X124853050Y-120113863D01*
X121948544Y-120113863D01*
X121487770Y-119653089D01*
X121475384Y-119638677D01*
X121466851Y-119627082D01*
X121466846Y-119627077D01*
X121462508Y-119621182D01*
X121456930Y-119616443D01*
X121456927Y-119616440D01*
X121422232Y-119586965D01*
X121414716Y-119580035D01*
X121409021Y-119574340D01*
X121402880Y-119569482D01*
X121386749Y-119556719D01*
X121383345Y-119553928D01*
X121333297Y-119511409D01*
X121333295Y-119511408D01*
X121327715Y-119506667D01*
X121321199Y-119503339D01*
X121316150Y-119499972D01*
X121311021Y-119496805D01*
X121305284Y-119492266D01*
X121239125Y-119461345D01*
X121235225Y-119459439D01*
X121170192Y-119426231D01*
X121163084Y-119424492D01*
X121157441Y-119422393D01*
X121151678Y-119420476D01*
X121145050Y-119417378D01*
X121073583Y-119402513D01*
X121069299Y-119401543D01*
X121035191Y-119393197D01*
X120998390Y-119384192D01*
X120992788Y-119383844D01*
X120992785Y-119383844D01*
X120987236Y-119383500D01*
X120987238Y-119383464D01*
X120983245Y-119383225D01*
X120979053Y-119382851D01*
X120971885Y-119381360D01*
X120905675Y-119383151D01*
X120894479Y-119383454D01*
X120891072Y-119383500D01*
X120079500Y-119383500D01*
X120011379Y-119363498D01*
X119964886Y-119309842D01*
X119953500Y-119257500D01*
X119953500Y-119243866D01*
X119946745Y-119181684D01*
X119895615Y-119045295D01*
X119875479Y-119018427D01*
X125456223Y-119018427D01*
X125462968Y-119030758D01*
X126202188Y-119769978D01*
X126216132Y-119777592D01*
X126217965Y-119777461D01*
X126224580Y-119773210D01*
X126968389Y-119029401D01*
X126975410Y-119016544D01*
X126968611Y-119007213D01*
X126964554Y-119004518D01*
X126778117Y-118901599D01*
X126768705Y-118897369D01*
X126567959Y-118826280D01*
X126557989Y-118823646D01*
X126348327Y-118786301D01*
X126338073Y-118785331D01*
X126125116Y-118782728D01*
X126114832Y-118783448D01*
X125904321Y-118815661D01*
X125894293Y-118818050D01*
X125691868Y-118884212D01*
X125682359Y-118888209D01*
X125493466Y-118986540D01*
X125484734Y-118992039D01*
X125464677Y-119007099D01*
X125456223Y-119018427D01*
X119875479Y-119018427D01*
X119808261Y-118928739D01*
X119691705Y-118841385D01*
X119555316Y-118790255D01*
X119493134Y-118783500D01*
X117696866Y-118783500D01*
X117634684Y-118790255D01*
X117498295Y-118841385D01*
X117381739Y-118928739D01*
X117294385Y-119045295D01*
X117243255Y-119181684D01*
X117236500Y-119243866D01*
X117236500Y-120652500D01*
X117216498Y-120720621D01*
X117162842Y-120767114D01*
X117110500Y-120778500D01*
X111250955Y-120778500D01*
X111182834Y-120758498D01*
X111136341Y-120704842D01*
X111126237Y-120634568D01*
X111130396Y-120615872D01*
X111185377Y-120434907D01*
X111187555Y-120424834D01*
X111215590Y-120211887D01*
X111216109Y-120205212D01*
X111217572Y-120145364D01*
X111217378Y-120138646D01*
X111199781Y-119924604D01*
X111198096Y-119914424D01*
X111146214Y-119707875D01*
X111142894Y-119698124D01*
X111057972Y-119502814D01*
X111053105Y-119493739D01*
X110988063Y-119393197D01*
X110977377Y-119383995D01*
X110967812Y-119388398D01*
X109944095Y-120412115D01*
X109881783Y-120446141D01*
X109810968Y-120441076D01*
X109765905Y-120412115D01*
X108744849Y-119391059D01*
X108733313Y-119384759D01*
X108721031Y-119394382D01*
X108673089Y-119464662D01*
X108668004Y-119473613D01*
X108578338Y-119666783D01*
X108574775Y-119676470D01*
X108517864Y-119881681D01*
X108515933Y-119891800D01*
X108493302Y-120103574D01*
X108493050Y-120113863D01*
X108505309Y-120326477D01*
X108506745Y-120336697D01*
X108553565Y-120544446D01*
X108556646Y-120554280D01*
X108577280Y-120605097D01*
X108584376Y-120675738D01*
X108552153Y-120739001D01*
X108490843Y-120774801D01*
X108460537Y-120778500D01*
X103719000Y-120778500D01*
X103650879Y-120758498D01*
X103604386Y-120704842D01*
X103593000Y-120652500D01*
X103593000Y-120414115D01*
X103588525Y-120398876D01*
X103587135Y-120397671D01*
X103579452Y-120396000D01*
X100895116Y-120396000D01*
X100879877Y-120400475D01*
X100878672Y-120401865D01*
X100877001Y-120409548D01*
X100877001Y-121036669D01*
X100877371Y-121043490D01*
X100882895Y-121094352D01*
X100886521Y-121109604D01*
X100931676Y-121230054D01*
X100940214Y-121245649D01*
X101016715Y-121347724D01*
X101029276Y-121360285D01*
X101131351Y-121436786D01*
X101146946Y-121445324D01*
X101255827Y-121486142D01*
X101312591Y-121528784D01*
X101337291Y-121595345D01*
X101322083Y-121664694D01*
X101302691Y-121691175D01*
X101291733Y-121702642D01*
X101175629Y-121824138D01*
X101172720Y-121828403D01*
X101172714Y-121828411D01*
X101133024Y-121886595D01*
X101049743Y-122008680D01*
X100955688Y-122211305D01*
X100895989Y-122426570D01*
X100872251Y-122648695D01*
X100872548Y-122653848D01*
X100872548Y-122653851D01*
X100878011Y-122748590D01*
X100885110Y-122871715D01*
X100886247Y-122876761D01*
X100886248Y-122876767D01*
X100906119Y-122964939D01*
X100934222Y-123089639D01*
X100983752Y-123211617D01*
X101011876Y-123280878D01*
X101018266Y-123296616D01*
X101034693Y-123323423D01*
X101100531Y-123430860D01*
X101134987Y-123487088D01*
X101281250Y-123655938D01*
X101453126Y-123798632D01*
X101523595Y-123839811D01*
X101526445Y-123841476D01*
X101575169Y-123893114D01*
X101588240Y-123962897D01*
X101561509Y-124028669D01*
X101521055Y-124062027D01*
X101508607Y-124068507D01*
X101504474Y-124071610D01*
X101504471Y-124071612D01*
X101480247Y-124089800D01*
X101329965Y-124202635D01*
X101175629Y-124364138D01*
X101049743Y-124548680D01*
X100955688Y-124751305D01*
X100895989Y-124966570D01*
X100872251Y-125188695D01*
X100872548Y-125193848D01*
X100872548Y-125193851D01*
X100878011Y-125288590D01*
X100885110Y-125411715D01*
X100886247Y-125416761D01*
X100886248Y-125416767D01*
X100906119Y-125504939D01*
X100934222Y-125629639D01*
X100994014Y-125776890D01*
X101011662Y-125820351D01*
X101018266Y-125836616D01*
X101134987Y-126027088D01*
X101281250Y-126195938D01*
X101453126Y-126338632D01*
X101646000Y-126451338D01*
X101650825Y-126453180D01*
X101650826Y-126453181D01*
X101709342Y-126475526D01*
X101854692Y-126531030D01*
X101859760Y-126532061D01*
X101859763Y-126532062D01*
X101967012Y-126553882D01*
X102073597Y-126575567D01*
X102078772Y-126575757D01*
X102078774Y-126575757D01*
X102291673Y-126583564D01*
X102291677Y-126583564D01*
X102296837Y-126583753D01*
X102301957Y-126583097D01*
X102301959Y-126583097D01*
X102513288Y-126556025D01*
X102513289Y-126556025D01*
X102518416Y-126555368D01*
X102564827Y-126541444D01*
X102727429Y-126492661D01*
X102727434Y-126492659D01*
X102732384Y-126491174D01*
X102932994Y-126392896D01*
X103114860Y-126263173D01*
X103273096Y-126105489D01*
X103332594Y-126022689D01*
X103400435Y-125928277D01*
X103400437Y-125928274D01*
X103403453Y-125924077D01*
X103436258Y-125857702D01*
X103500136Y-125728453D01*
X103500137Y-125728451D01*
X103502430Y-125723811D01*
X103567370Y-125510069D01*
X103596529Y-125288590D01*
X103598156Y-125222000D01*
X103579852Y-124999361D01*
X103551821Y-124887765D01*
X103554625Y-124816823D01*
X103584930Y-124767974D01*
X103730499Y-124622405D01*
X103792811Y-124588379D01*
X103819594Y-124585500D01*
X108456527Y-124585500D01*
X108524648Y-124605502D01*
X108571141Y-124659158D01*
X108581245Y-124729432D01*
X108575745Y-124751182D01*
X108575688Y-124751305D01*
X108515989Y-124966570D01*
X108492251Y-125188695D01*
X108492548Y-125193848D01*
X108492548Y-125193851D01*
X108498011Y-125288590D01*
X108505110Y-125411715D01*
X108506247Y-125416761D01*
X108506248Y-125416767D01*
X108526119Y-125504939D01*
X108554222Y-125629639D01*
X108614014Y-125776890D01*
X108631662Y-125820351D01*
X108638266Y-125836616D01*
X108754987Y-126027088D01*
X108901250Y-126195938D01*
X109073126Y-126338632D01*
X109266000Y-126451338D01*
X109270825Y-126453180D01*
X109270826Y-126453181D01*
X109329342Y-126475526D01*
X109474692Y-126531030D01*
X109479760Y-126532061D01*
X109479763Y-126532062D01*
X109587012Y-126553882D01*
X109693597Y-126575567D01*
X109698772Y-126575757D01*
X109698774Y-126575757D01*
X109911673Y-126583564D01*
X109911677Y-126583564D01*
X109916837Y-126583753D01*
X109921957Y-126583097D01*
X109921959Y-126583097D01*
X110133288Y-126556025D01*
X110133289Y-126556025D01*
X110138416Y-126555368D01*
X110143367Y-126553883D01*
X110143370Y-126553882D01*
X110184829Y-126541444D01*
X110255825Y-126541028D01*
X110310131Y-126573035D01*
X111637343Y-127900247D01*
X111644887Y-127908537D01*
X111649000Y-127915018D01*
X111654777Y-127920443D01*
X111698667Y-127961658D01*
X111701509Y-127964413D01*
X111721230Y-127984134D01*
X111724425Y-127986612D01*
X111733447Y-127994318D01*
X111765679Y-128024586D01*
X111772628Y-128028406D01*
X111783432Y-128034346D01*
X111799956Y-128045199D01*
X111815959Y-128057613D01*
X111856543Y-128075176D01*
X111867173Y-128080383D01*
X111905940Y-128101695D01*
X111913617Y-128103666D01*
X111913622Y-128103668D01*
X111925558Y-128106732D01*
X111944266Y-128113137D01*
X111962855Y-128121181D01*
X111970683Y-128122421D01*
X111970690Y-128122423D01*
X112006524Y-128128099D01*
X112018144Y-128130505D01*
X112053289Y-128139528D01*
X112060970Y-128141500D01*
X112081224Y-128141500D01*
X112100934Y-128143051D01*
X112120943Y-128146220D01*
X112128835Y-128145474D01*
X112164961Y-128142059D01*
X112176819Y-128141500D01*
X121640663Y-128141500D01*
X121708784Y-128161502D01*
X121729680Y-128178326D01*
X121836141Y-128284601D01*
X121870220Y-128346882D01*
X121865217Y-128417702D01*
X121836296Y-128462791D01*
X121733637Y-128565629D01*
X121724625Y-128577040D01*
X121641088Y-128712563D01*
X121634944Y-128725741D01*
X121584685Y-128877266D01*
X121581819Y-128890632D01*
X121572328Y-128983270D01*
X121572000Y-128989685D01*
X121572000Y-129013885D01*
X121576475Y-129029124D01*
X121577865Y-129030329D01*
X121585548Y-129032000D01*
X123519885Y-129032000D01*
X123535124Y-129027525D01*
X123536329Y-129026135D01*
X123538000Y-129018452D01*
X123538000Y-128989734D01*
X123537663Y-128983218D01*
X123527925Y-128889368D01*
X123525032Y-128875972D01*
X123474512Y-128724547D01*
X123468347Y-128711385D01*
X123384574Y-128576008D01*
X123375540Y-128564610D01*
X123273860Y-128463107D01*
X123239781Y-128400824D01*
X123244784Y-128330004D01*
X123273705Y-128284916D01*
X123274022Y-128284599D01*
X123381929Y-128176503D01*
X123395564Y-128154384D01*
X123448336Y-128106891D01*
X123502824Y-128094500D01*
X123897233Y-128094500D01*
X123908416Y-128095027D01*
X123915909Y-128096702D01*
X123923835Y-128096453D01*
X123923836Y-128096453D01*
X123983986Y-128094562D01*
X123987945Y-128094500D01*
X124015856Y-128094500D01*
X124019791Y-128094003D01*
X124019856Y-128093995D01*
X124031693Y-128093062D01*
X124063951Y-128092048D01*
X124067970Y-128091922D01*
X124075889Y-128091673D01*
X124095343Y-128086021D01*
X124114700Y-128082013D01*
X124126930Y-128080468D01*
X124126931Y-128080468D01*
X124134797Y-128079474D01*
X124142168Y-128076555D01*
X124142170Y-128076555D01*
X124175912Y-128063196D01*
X124187142Y-128059351D01*
X124221983Y-128049229D01*
X124221984Y-128049229D01*
X124229593Y-128047018D01*
X124236412Y-128042985D01*
X124236417Y-128042983D01*
X124247028Y-128036707D01*
X124264776Y-128028012D01*
X124283617Y-128020552D01*
X124319387Y-127994564D01*
X124329307Y-127988048D01*
X124360535Y-127969580D01*
X124360538Y-127969578D01*
X124367362Y-127965542D01*
X124381683Y-127951221D01*
X124396717Y-127938380D01*
X124406694Y-127931131D01*
X124413107Y-127926472D01*
X124441298Y-127892395D01*
X124449288Y-127883616D01*
X125759549Y-126573355D01*
X125821861Y-126539329D01*
X125873762Y-126538979D01*
X126053597Y-126575567D01*
X126058772Y-126575757D01*
X126058774Y-126575757D01*
X126271673Y-126583564D01*
X126271677Y-126583564D01*
X126276837Y-126583753D01*
X126281957Y-126583097D01*
X126281959Y-126583097D01*
X126493288Y-126556025D01*
X126493289Y-126556025D01*
X126498416Y-126555368D01*
X126544827Y-126541444D01*
X126707429Y-126492661D01*
X126707434Y-126492659D01*
X126712384Y-126491174D01*
X126912994Y-126392896D01*
X127094860Y-126263173D01*
X127253096Y-126105489D01*
X127312594Y-126022689D01*
X127380437Y-125928274D01*
X127383453Y-125924077D01*
X127385746Y-125919438D01*
X127386977Y-125917390D01*
X127439207Y-125869301D01*
X127491020Y-125856347D01*
X127513562Y-125855638D01*
X127515986Y-125855562D01*
X127519945Y-125855500D01*
X127547856Y-125855500D01*
X127551791Y-125855003D01*
X127551856Y-125854995D01*
X127563693Y-125854062D01*
X127595951Y-125853048D01*
X127599970Y-125852922D01*
X127607889Y-125852673D01*
X127627343Y-125847021D01*
X127646700Y-125843013D01*
X127658930Y-125841468D01*
X127658931Y-125841468D01*
X127666797Y-125840474D01*
X127674168Y-125837555D01*
X127674170Y-125837555D01*
X127707912Y-125824196D01*
X127719142Y-125820351D01*
X127753983Y-125810229D01*
X127753984Y-125810229D01*
X127761593Y-125808018D01*
X127768412Y-125803985D01*
X127768417Y-125803983D01*
X127779028Y-125797707D01*
X127796776Y-125789012D01*
X127815617Y-125781552D01*
X127851387Y-125755564D01*
X127861307Y-125749048D01*
X127892535Y-125730580D01*
X127892538Y-125730578D01*
X127899362Y-125726542D01*
X127913683Y-125712221D01*
X127928717Y-125699380D01*
X127938694Y-125692131D01*
X127945107Y-125687472D01*
X127973298Y-125653395D01*
X127981288Y-125644616D01*
X129932253Y-123693652D01*
X129940539Y-123686112D01*
X129947018Y-123682000D01*
X129993644Y-123632348D01*
X129996398Y-123629507D01*
X130016135Y-123609770D01*
X130018615Y-123606573D01*
X130026320Y-123597551D01*
X130051159Y-123571100D01*
X130056586Y-123565321D01*
X130060405Y-123558375D01*
X130060407Y-123558372D01*
X130065086Y-123549861D01*
X130115432Y-123499803D01*
X130184849Y-123484910D01*
X130251298Y-123509912D01*
X130293681Y-123566869D01*
X130301500Y-123610563D01*
X130301500Y-142825633D01*
X130300000Y-142845018D01*
X130296309Y-142868724D01*
X130297065Y-142874508D01*
X130276693Y-142940868D01*
X130222472Y-142986700D01*
X130181127Y-142995165D01*
X130181277Y-142996309D01*
X130181276Y-142996309D01*
X130149714Y-143000436D01*
X130133379Y-143001500D01*
X98474367Y-143001500D01*
X98454982Y-143000000D01*
X98440148Y-142997690D01*
X98440145Y-142997690D01*
X98431276Y-142996309D01*
X98426065Y-142996990D01*
X98359984Y-142976706D01*
X98314150Y-142922486D01*
X98303671Y-142879778D01*
X98303729Y-142875000D01*
X98299773Y-142847376D01*
X98298500Y-142829514D01*
X98298500Y-139324669D01*
X124372001Y-139324669D01*
X124372371Y-139331490D01*
X124377895Y-139382352D01*
X124381521Y-139397604D01*
X124426676Y-139518054D01*
X124435214Y-139533649D01*
X124511715Y-139635724D01*
X124524276Y-139648285D01*
X124626351Y-139724786D01*
X124641946Y-139733324D01*
X124762394Y-139778478D01*
X124777649Y-139782105D01*
X124828514Y-139787631D01*
X124835328Y-139788000D01*
X125457885Y-139788000D01*
X125473124Y-139783525D01*
X125474329Y-139782135D01*
X125476000Y-139774452D01*
X125476000Y-139769884D01*
X125984000Y-139769884D01*
X125988475Y-139785123D01*
X125989865Y-139786328D01*
X125997548Y-139787999D01*
X126624669Y-139787999D01*
X126631490Y-139787629D01*
X126682352Y-139782105D01*
X126697604Y-139778479D01*
X126818054Y-139733324D01*
X126833649Y-139724786D01*
X126935724Y-139648285D01*
X126948285Y-139635724D01*
X127024786Y-139533649D01*
X127033324Y-139518054D01*
X127078478Y-139397606D01*
X127082105Y-139382351D01*
X127087631Y-139331486D01*
X127088000Y-139324672D01*
X127088000Y-138702115D01*
X127083525Y-138686876D01*
X127082135Y-138685671D01*
X127074452Y-138684000D01*
X126002115Y-138684000D01*
X125986876Y-138688475D01*
X125985671Y-138689865D01*
X125984000Y-138697548D01*
X125984000Y-139769884D01*
X125476000Y-139769884D01*
X125476000Y-138702115D01*
X125471525Y-138686876D01*
X125470135Y-138685671D01*
X125462452Y-138684000D01*
X124390116Y-138684000D01*
X124374877Y-138688475D01*
X124373672Y-138689865D01*
X124372001Y-138697548D01*
X124372001Y-139324669D01*
X98298500Y-139324669D01*
X98298500Y-137199690D01*
X108262037Y-137199690D01*
X108289025Y-137422715D01*
X108355082Y-137637435D01*
X108357652Y-137642415D01*
X108357654Y-137642419D01*
X108422852Y-137768738D01*
X108458118Y-137837064D01*
X108594877Y-138015292D01*
X108761036Y-138166485D01*
X108765783Y-138169463D01*
X108765786Y-138169465D01*
X108894229Y-138250036D01*
X108951344Y-138285864D01*
X109159783Y-138369656D01*
X109379767Y-138415213D01*
X109384378Y-138415479D01*
X109384379Y-138415479D01*
X109434952Y-138418395D01*
X109434956Y-138418395D01*
X109436775Y-138418500D01*
X109581999Y-138418500D01*
X109584786Y-138418251D01*
X109584792Y-138418251D01*
X109654929Y-138411991D01*
X109748762Y-138403617D01*
X109754176Y-138402136D01*
X109754181Y-138402135D01*
X109881912Y-138367191D01*
X109965451Y-138344337D01*
X109970509Y-138341925D01*
X109970513Y-138341923D01*
X110088042Y-138285864D01*
X110168218Y-138247622D01*
X110350654Y-138116529D01*
X110506992Y-137955201D01*
X110632290Y-137768738D01*
X110722588Y-137563033D01*
X110729240Y-137535328D01*
X110773722Y-137350046D01*
X110773722Y-137350045D01*
X110775032Y-137344589D01*
X110783386Y-137199690D01*
X115262037Y-137199690D01*
X115289025Y-137422715D01*
X115355082Y-137637435D01*
X115357652Y-137642415D01*
X115357654Y-137642419D01*
X115422852Y-137768738D01*
X115458118Y-137837064D01*
X115594877Y-138015292D01*
X115761036Y-138166485D01*
X115765783Y-138169463D01*
X115765786Y-138169465D01*
X115894229Y-138250036D01*
X115951344Y-138285864D01*
X116159783Y-138369656D01*
X116379767Y-138415213D01*
X116384378Y-138415479D01*
X116384379Y-138415479D01*
X116434952Y-138418395D01*
X116434956Y-138418395D01*
X116436775Y-138418500D01*
X116581999Y-138418500D01*
X116584786Y-138418251D01*
X116584792Y-138418251D01*
X116654929Y-138411991D01*
X116748762Y-138403617D01*
X116754176Y-138402136D01*
X116754181Y-138402135D01*
X116881912Y-138367191D01*
X116965451Y-138344337D01*
X116970509Y-138341925D01*
X116970513Y-138341923D01*
X117088042Y-138285864D01*
X117168218Y-138247622D01*
X117350654Y-138116529D01*
X117506992Y-137955201D01*
X117632290Y-137768738D01*
X117722588Y-137563033D01*
X117729240Y-137535328D01*
X117773722Y-137350046D01*
X117773722Y-137350045D01*
X117775032Y-137344589D01*
X117787963Y-137120310D01*
X117760975Y-136897285D01*
X117694918Y-136682565D01*
X117645820Y-136587438D01*
X117594454Y-136487919D01*
X117594454Y-136487918D01*
X117591882Y-136482936D01*
X117455123Y-136304708D01*
X117288964Y-136153515D01*
X117284217Y-136150537D01*
X117284214Y-136150535D01*
X117103405Y-136037115D01*
X117098656Y-136034136D01*
X116890217Y-135950344D01*
X116670233Y-135904787D01*
X116665622Y-135904521D01*
X116665621Y-135904521D01*
X116615048Y-135901605D01*
X116615044Y-135901605D01*
X116613225Y-135901500D01*
X116468001Y-135901500D01*
X116465214Y-135901749D01*
X116465208Y-135901749D01*
X116395071Y-135908009D01*
X116301238Y-135916383D01*
X116295824Y-135917864D01*
X116295819Y-135917865D01*
X116181262Y-135949205D01*
X116084549Y-135975663D01*
X116079491Y-135978075D01*
X116079487Y-135978077D01*
X115983166Y-136024020D01*
X115881782Y-136072378D01*
X115699346Y-136203471D01*
X115543008Y-136364799D01*
X115417710Y-136551262D01*
X115327412Y-136756967D01*
X115326103Y-136762418D01*
X115326102Y-136762422D01*
X115276278Y-136969954D01*
X115274968Y-136975411D01*
X115262037Y-137199690D01*
X110783386Y-137199690D01*
X110787963Y-137120310D01*
X110760975Y-136897285D01*
X110694918Y-136682565D01*
X110645820Y-136587438D01*
X110594454Y-136487919D01*
X110594454Y-136487918D01*
X110591882Y-136482936D01*
X110455123Y-136304708D01*
X110288964Y-136153515D01*
X110284217Y-136150537D01*
X110284214Y-136150535D01*
X110103405Y-136037115D01*
X110098656Y-136034136D01*
X109890217Y-135950344D01*
X109670233Y-135904787D01*
X109665622Y-135904521D01*
X109665621Y-135904521D01*
X109615048Y-135901605D01*
X109615044Y-135901605D01*
X109613225Y-135901500D01*
X109468001Y-135901500D01*
X109465214Y-135901749D01*
X109465208Y-135901749D01*
X109395071Y-135908009D01*
X109301238Y-135916383D01*
X109295824Y-135917864D01*
X109295819Y-135917865D01*
X109181262Y-135949205D01*
X109084549Y-135975663D01*
X109079491Y-135978075D01*
X109079487Y-135978077D01*
X108983166Y-136024020D01*
X108881782Y-136072378D01*
X108699346Y-136203471D01*
X108543008Y-136364799D01*
X108417710Y-136551262D01*
X108327412Y-136756967D01*
X108326103Y-136762418D01*
X108326102Y-136762422D01*
X108276278Y-136969954D01*
X108274968Y-136975411D01*
X108262037Y-137199690D01*
X98298500Y-137199690D01*
X98298500Y-95221863D01*
X100238050Y-95221863D01*
X100250309Y-95434477D01*
X100251745Y-95444697D01*
X100298565Y-95652446D01*
X100301645Y-95662275D01*
X100381770Y-95859603D01*
X100386413Y-95868794D01*
X100466460Y-95999420D01*
X100476916Y-96008880D01*
X100485694Y-96005096D01*
X101227978Y-95262812D01*
X101234356Y-95251132D01*
X101964408Y-95251132D01*
X101964539Y-95252965D01*
X101968790Y-95259580D01*
X102710474Y-96001264D01*
X102722484Y-96007823D01*
X102734223Y-95998855D01*
X102765004Y-95956019D01*
X102770315Y-95947180D01*
X102864670Y-95756267D01*
X102868469Y-95746672D01*
X102930376Y-95542915D01*
X102932555Y-95532834D01*
X102960590Y-95319887D01*
X102961109Y-95313212D01*
X102962572Y-95253364D01*
X102962378Y-95246646D01*
X102944781Y-95032604D01*
X102943096Y-95022424D01*
X102891214Y-94815875D01*
X102887894Y-94806124D01*
X102802972Y-94610814D01*
X102798105Y-94601739D01*
X102733063Y-94501197D01*
X102722377Y-94491995D01*
X102712812Y-94496398D01*
X101972022Y-95237188D01*
X101964408Y-95251132D01*
X101234356Y-95251132D01*
X101235592Y-95248868D01*
X101235461Y-95247035D01*
X101231210Y-95240420D01*
X100489849Y-94499059D01*
X100478313Y-94492759D01*
X100466031Y-94502382D01*
X100418089Y-94572662D01*
X100413004Y-94581613D01*
X100323338Y-94774783D01*
X100319775Y-94784470D01*
X100262864Y-94989681D01*
X100260933Y-94999800D01*
X100238302Y-95211574D01*
X100238050Y-95221863D01*
X98298500Y-95221863D01*
X98298500Y-77944695D01*
X110397251Y-77944695D01*
X110397548Y-77949848D01*
X110397548Y-77949851D01*
X110403011Y-78044590D01*
X110410110Y-78167715D01*
X110411247Y-78172761D01*
X110411248Y-78172767D01*
X110431119Y-78260939D01*
X110459222Y-78385639D01*
X110543266Y-78592616D01*
X110545965Y-78597020D01*
X110657288Y-78778683D01*
X110659987Y-78783088D01*
X110806250Y-78951938D01*
X110978126Y-79094632D01*
X111171000Y-79207338D01*
X111379692Y-79287030D01*
X111384760Y-79288061D01*
X111384763Y-79288062D01*
X111489604Y-79309392D01*
X111598597Y-79331567D01*
X111603772Y-79331757D01*
X111603774Y-79331757D01*
X111816673Y-79339564D01*
X111816677Y-79339564D01*
X111821837Y-79339753D01*
X111826957Y-79339097D01*
X111826959Y-79339097D01*
X112038288Y-79312025D01*
X112038289Y-79312025D01*
X112043416Y-79311368D01*
X112048366Y-79309883D01*
X112252429Y-79248661D01*
X112252434Y-79248659D01*
X112257384Y-79247174D01*
X112457994Y-79148896D01*
X112522544Y-79102853D01*
X113539977Y-79102853D01*
X113545258Y-79109907D01*
X113706756Y-79204279D01*
X113716042Y-79208729D01*
X113915001Y-79284703D01*
X113924899Y-79287579D01*
X114133595Y-79330038D01*
X114143823Y-79331257D01*
X114356650Y-79339062D01*
X114366936Y-79338595D01*
X114578185Y-79311534D01*
X114588262Y-79309392D01*
X114792255Y-79248191D01*
X114801842Y-79244433D01*
X114993098Y-79150738D01*
X115001944Y-79145465D01*
X115049247Y-79111723D01*
X115057648Y-79101023D01*
X115050660Y-79087870D01*
X114312812Y-78350022D01*
X114298868Y-78342408D01*
X114297035Y-78342539D01*
X114290420Y-78346790D01*
X113546737Y-79090473D01*
X113539977Y-79102853D01*
X112522544Y-79102853D01*
X112639860Y-79019173D01*
X112798096Y-78861489D01*
X112857594Y-78778689D01*
X112928453Y-78680077D01*
X112929640Y-78680930D01*
X112976960Y-78637362D01*
X113046897Y-78625145D01*
X113112338Y-78652678D01*
X113140166Y-78684512D01*
X113166459Y-78727419D01*
X113176916Y-78736880D01*
X113185694Y-78733096D01*
X113927978Y-77990812D01*
X113934356Y-77979132D01*
X114664408Y-77979132D01*
X114664539Y-77980965D01*
X114668790Y-77987580D01*
X115410474Y-78729264D01*
X115422484Y-78735823D01*
X115434223Y-78726855D01*
X115468022Y-78679819D01*
X115469277Y-78680721D01*
X115516391Y-78637355D01*
X115586330Y-78625148D01*
X115651767Y-78652691D01*
X115679580Y-78684513D01*
X115737287Y-78778683D01*
X115737291Y-78778688D01*
X115739987Y-78783088D01*
X115886250Y-78951938D01*
X116058126Y-79094632D01*
X116251000Y-79207338D01*
X116459692Y-79287030D01*
X116464760Y-79288061D01*
X116464763Y-79288062D01*
X116569604Y-79309392D01*
X116678597Y-79331567D01*
X116683772Y-79331757D01*
X116683774Y-79331757D01*
X116896673Y-79339564D01*
X116896677Y-79339564D01*
X116901837Y-79339753D01*
X116906957Y-79339097D01*
X116906959Y-79339097D01*
X117118288Y-79312025D01*
X117118289Y-79312025D01*
X117123416Y-79311368D01*
X117128366Y-79309883D01*
X117332429Y-79248661D01*
X117332434Y-79248659D01*
X117337384Y-79247174D01*
X117537994Y-79148896D01*
X117719860Y-79019173D01*
X117878096Y-78861489D01*
X117937594Y-78778689D01*
X118005435Y-78684277D01*
X118008453Y-78680077D01*
X118021995Y-78652678D01*
X118105136Y-78484453D01*
X118105137Y-78484451D01*
X118107430Y-78479811D01*
X118172370Y-78266069D01*
X118201529Y-78044590D01*
X118203156Y-77978000D01*
X118184852Y-77755361D01*
X118130431Y-77538702D01*
X118041354Y-77333840D01*
X117920014Y-77146277D01*
X117769670Y-76981051D01*
X117765619Y-76977852D01*
X117765615Y-76977848D01*
X117598414Y-76845800D01*
X117598410Y-76845798D01*
X117594359Y-76842598D01*
X117398789Y-76734638D01*
X117393920Y-76732914D01*
X117393916Y-76732912D01*
X117193087Y-76661795D01*
X117193083Y-76661794D01*
X117188212Y-76660069D01*
X117183119Y-76659162D01*
X117183116Y-76659161D01*
X116973373Y-76621800D01*
X116973367Y-76621799D01*
X116968284Y-76620894D01*
X116894452Y-76619992D01*
X116750081Y-76618228D01*
X116750079Y-76618228D01*
X116744911Y-76618165D01*
X116524091Y-76651955D01*
X116311756Y-76721357D01*
X116113607Y-76824507D01*
X116109474Y-76827610D01*
X116109471Y-76827612D01*
X115939100Y-76955530D01*
X115934965Y-76958635D01*
X115780629Y-77120138D01*
X115707693Y-77227059D01*
X115672898Y-77278066D01*
X115617987Y-77323069D01*
X115547462Y-77331240D01*
X115483715Y-77299986D01*
X115463017Y-77275501D01*
X115433062Y-77229197D01*
X115422377Y-77219995D01*
X115412812Y-77224398D01*
X114672022Y-77965188D01*
X114664408Y-77979132D01*
X113934356Y-77979132D01*
X113935592Y-77976868D01*
X113935461Y-77975035D01*
X113931210Y-77968420D01*
X113189849Y-77227059D01*
X113178313Y-77220759D01*
X113166031Y-77230382D01*
X113133499Y-77278072D01*
X113078587Y-77323075D01*
X113008063Y-77331246D01*
X112944316Y-77299992D01*
X112923618Y-77275508D01*
X112842822Y-77150617D01*
X112842820Y-77150614D01*
X112840014Y-77146277D01*
X112689670Y-76981051D01*
X112685619Y-76977852D01*
X112685615Y-76977848D01*
X112529338Y-76854427D01*
X113541223Y-76854427D01*
X113547968Y-76866758D01*
X114287188Y-77605978D01*
X114301132Y-77613592D01*
X114302965Y-77613461D01*
X114309580Y-77609210D01*
X115053389Y-76865401D01*
X115060410Y-76852544D01*
X115053611Y-76843213D01*
X115049554Y-76840518D01*
X114863117Y-76737599D01*
X114853705Y-76733369D01*
X114652959Y-76662280D01*
X114642989Y-76659646D01*
X114433327Y-76622301D01*
X114423073Y-76621331D01*
X114210116Y-76618728D01*
X114199832Y-76619448D01*
X113989321Y-76651661D01*
X113979293Y-76654050D01*
X113776868Y-76720212D01*
X113767359Y-76724209D01*
X113578466Y-76822540D01*
X113569734Y-76828039D01*
X113549677Y-76843099D01*
X113541223Y-76854427D01*
X112529338Y-76854427D01*
X112518414Y-76845800D01*
X112518410Y-76845798D01*
X112514359Y-76842598D01*
X112318789Y-76734638D01*
X112313920Y-76732914D01*
X112313916Y-76732912D01*
X112113087Y-76661795D01*
X112113083Y-76661794D01*
X112108212Y-76660069D01*
X112103119Y-76659162D01*
X112103116Y-76659161D01*
X111893373Y-76621800D01*
X111893367Y-76621799D01*
X111888284Y-76620894D01*
X111814452Y-76619992D01*
X111670081Y-76618228D01*
X111670079Y-76618228D01*
X111664911Y-76618165D01*
X111444091Y-76651955D01*
X111231756Y-76721357D01*
X111033607Y-76824507D01*
X111029474Y-76827610D01*
X111029471Y-76827612D01*
X110859100Y-76955530D01*
X110854965Y-76958635D01*
X110700629Y-77120138D01*
X110574743Y-77304680D01*
X110480688Y-77507305D01*
X110420989Y-77722570D01*
X110397251Y-77944695D01*
X98298500Y-77944695D01*
X98298500Y-68546695D01*
X114207251Y-68546695D01*
X114207548Y-68551848D01*
X114207548Y-68551851D01*
X114213011Y-68646590D01*
X114220110Y-68769715D01*
X114221247Y-68774761D01*
X114221248Y-68774767D01*
X114241119Y-68862939D01*
X114269222Y-68987639D01*
X114353266Y-69194616D01*
X114355965Y-69199020D01*
X114467291Y-69380688D01*
X114469987Y-69385088D01*
X114616250Y-69553938D01*
X114620230Y-69557242D01*
X114624981Y-69561187D01*
X114664616Y-69620090D01*
X114666113Y-69691071D01*
X114628997Y-69751593D01*
X114588725Y-69776112D01*
X114548638Y-69791140D01*
X114473295Y-69819385D01*
X114356739Y-69906739D01*
X114269385Y-70023295D01*
X114218255Y-70159684D01*
X114211500Y-70221866D01*
X114211500Y-72018134D01*
X114218255Y-72080316D01*
X114269385Y-72216705D01*
X114356739Y-72333261D01*
X114473295Y-72420615D01*
X114609684Y-72471745D01*
X114671866Y-72478500D01*
X116468134Y-72478500D01*
X116530316Y-72471745D01*
X116666705Y-72420615D01*
X116783261Y-72333261D01*
X116870615Y-72216705D01*
X116914798Y-72098848D01*
X116957440Y-72042084D01*
X117024001Y-72017384D01*
X117093350Y-72032592D01*
X117128017Y-72060580D01*
X117153218Y-72089673D01*
X117160580Y-72096883D01*
X117324434Y-72232916D01*
X117332881Y-72238831D01*
X117516756Y-72346279D01*
X117526042Y-72350729D01*
X117725001Y-72426703D01*
X117734899Y-72429579D01*
X117838250Y-72450606D01*
X117852299Y-72449410D01*
X117856000Y-72439065D01*
X117856000Y-67263102D01*
X117852082Y-67249758D01*
X117837806Y-67247771D01*
X117799324Y-67253660D01*
X117789288Y-67256051D01*
X117586868Y-67322212D01*
X117577359Y-67326209D01*
X117388463Y-67424542D01*
X117379738Y-67430036D01*
X117209433Y-67557905D01*
X117201726Y-67564748D01*
X117054590Y-67718717D01*
X117048109Y-67726722D01*
X116943498Y-67880074D01*
X116888587Y-67925076D01*
X116818062Y-67933247D01*
X116754315Y-67901993D01*
X116733618Y-67877509D01*
X116652822Y-67752617D01*
X116652820Y-67752614D01*
X116650014Y-67748277D01*
X116499670Y-67583051D01*
X116495619Y-67579852D01*
X116495615Y-67579848D01*
X116328414Y-67447800D01*
X116328410Y-67447798D01*
X116324359Y-67444598D01*
X116288028Y-67424542D01*
X116272136Y-67415769D01*
X116128789Y-67336638D01*
X116123920Y-67334914D01*
X116123916Y-67334912D01*
X115923087Y-67263795D01*
X115923083Y-67263794D01*
X115918212Y-67262069D01*
X115913119Y-67261162D01*
X115913116Y-67261161D01*
X115703373Y-67223800D01*
X115703367Y-67223799D01*
X115698284Y-67222894D01*
X115624452Y-67221992D01*
X115480081Y-67220228D01*
X115480079Y-67220228D01*
X115474911Y-67220165D01*
X115254091Y-67253955D01*
X115041756Y-67323357D01*
X114843607Y-67426507D01*
X114839474Y-67429610D01*
X114839471Y-67429612D01*
X114815247Y-67447800D01*
X114664965Y-67560635D01*
X114510629Y-67722138D01*
X114384743Y-67906680D01*
X114290688Y-68109305D01*
X114230989Y-68324570D01*
X114207251Y-68546695D01*
X98298500Y-68546695D01*
X98298500Y-66728250D01*
X98300246Y-66707345D01*
X98302770Y-66692344D01*
X98302770Y-66692341D01*
X98303576Y-66687552D01*
X98303704Y-66677029D01*
X98324533Y-66609157D01*
X98378750Y-66563320D01*
X98418906Y-66555094D01*
X98418723Y-66553691D01*
X98418724Y-66553691D01*
X98450286Y-66549564D01*
X98466621Y-66548500D01*
X130125633Y-66548500D01*
X130145018Y-66550000D01*
G37*
G04 #@! TD.AperFunction*
M02*
