%TF.GenerationSoftware,KiCad,Pcbnew,6.0.9-8da3e8f707~116~ubuntu20.04.1*%
%TF.CreationDate,2022-12-17T22:05:49+01:00*%
%TF.ProjectId,pcm_pmod,70636d5f-706d-46f6-942e-6b696361645f,rev?*%
%TF.SameCoordinates,Original*%
%TF.FileFunction,Drillmap*%
%TF.FilePolarity,Positive*%
%FSLAX45Y45*%
G04 Gerber Fmt 4.5, Leading zero omitted, Abs format (unit mm)*
G04 Created by KiCad (PCBNEW 6.0.9-8da3e8f707~116~ubuntu20.04.1) date 2022-12-17 22:05:49*
%MOMM*%
%LPD*%
G01*
G04 APERTURE LIST*
%ADD10C,0.100000*%
%ADD11C,0.200000*%
%ADD12C,0.150000*%
G04 APERTURE END LIST*
D10*
X9842500Y-6604000D02*
G75*
G03*
X9779000Y-6667500I0J-63500D01*
G01*
X9779000Y-14287500D02*
X9779000Y-6667500D01*
X13017500Y-14351000D02*
X9842500Y-14351000D01*
X13017500Y-14351000D02*
G75*
G03*
X13081000Y-14287500I0J63500D01*
G01*
X9779000Y-14287500D02*
G75*
G03*
X9842500Y-14351000I63500J0D01*
G01*
X9842500Y-6604000D02*
X13017500Y-6604000D01*
X13081000Y-6667500D02*
X13081000Y-14287500D01*
X13081000Y-6667500D02*
G75*
G03*
X13017500Y-6604000I-63500J0D01*
G01*
D11*
D12*
X10877500Y-13641000D02*
X11027500Y-13791000D01*
X11027500Y-13641000D02*
X10877500Y-13791000D01*
X11577500Y-13641000D02*
X11727500Y-13791000D01*
X11727500Y-13641000D02*
X11577500Y-13791000D01*
D11*
X10031619Y-14666476D02*
X10031619Y-14466476D01*
X10079238Y-14466476D01*
X10107810Y-14476000D01*
X10126857Y-14495048D01*
X10136381Y-14514095D01*
X10145905Y-14552190D01*
X10145905Y-14580762D01*
X10136381Y-14618857D01*
X10126857Y-14637905D01*
X10107810Y-14656952D01*
X10079238Y-14666476D01*
X10031619Y-14666476D01*
X10231619Y-14666476D02*
X10231619Y-14533143D01*
X10231619Y-14571238D02*
X10241143Y-14552190D01*
X10250667Y-14542667D01*
X10269714Y-14533143D01*
X10288762Y-14533143D01*
X10355429Y-14666476D02*
X10355429Y-14533143D01*
X10355429Y-14466476D02*
X10345905Y-14476000D01*
X10355429Y-14485524D01*
X10364952Y-14476000D01*
X10355429Y-14466476D01*
X10355429Y-14485524D01*
X10479238Y-14666476D02*
X10460190Y-14656952D01*
X10450667Y-14637905D01*
X10450667Y-14466476D01*
X10584000Y-14666476D02*
X10564952Y-14656952D01*
X10555429Y-14637905D01*
X10555429Y-14466476D01*
X10812571Y-14666476D02*
X10812571Y-14466476D01*
X10879238Y-14609333D01*
X10945905Y-14466476D01*
X10945905Y-14666476D01*
X11126857Y-14666476D02*
X11126857Y-14561714D01*
X11117333Y-14542667D01*
X11098286Y-14533143D01*
X11060190Y-14533143D01*
X11041143Y-14542667D01*
X11126857Y-14656952D02*
X11107810Y-14666476D01*
X11060190Y-14666476D01*
X11041143Y-14656952D01*
X11031619Y-14637905D01*
X11031619Y-14618857D01*
X11041143Y-14599809D01*
X11060190Y-14590286D01*
X11107810Y-14590286D01*
X11126857Y-14580762D01*
X11222095Y-14533143D02*
X11222095Y-14733143D01*
X11222095Y-14542667D02*
X11241143Y-14533143D01*
X11279238Y-14533143D01*
X11298286Y-14542667D01*
X11307809Y-14552190D01*
X11317333Y-14571238D01*
X11317333Y-14628381D01*
X11307809Y-14647428D01*
X11298286Y-14656952D01*
X11279238Y-14666476D01*
X11241143Y-14666476D01*
X11222095Y-14656952D01*
X11403048Y-14647428D02*
X11412571Y-14656952D01*
X11403048Y-14666476D01*
X11393524Y-14656952D01*
X11403048Y-14647428D01*
X11403048Y-14666476D01*
X11403048Y-14542667D02*
X11412571Y-14552190D01*
X11403048Y-14561714D01*
X11393524Y-14552190D01*
X11403048Y-14542667D01*
X11403048Y-14561714D01*
D12*
X9624000Y-14921000D02*
X9774000Y-15071000D01*
X9774000Y-14921000D02*
X9624000Y-15071000D01*
D11*
X10136381Y-15086476D02*
X10022095Y-15086476D01*
X10079238Y-15086476D02*
X10079238Y-14886476D01*
X10060190Y-14915048D01*
X10041143Y-14934095D01*
X10022095Y-14943619D01*
X10222095Y-15067428D02*
X10231619Y-15076952D01*
X10222095Y-15086476D01*
X10212571Y-15076952D01*
X10222095Y-15067428D01*
X10222095Y-15086476D01*
X10412571Y-14886476D02*
X10317333Y-14886476D01*
X10307810Y-14981714D01*
X10317333Y-14972190D01*
X10336381Y-14962667D01*
X10384000Y-14962667D01*
X10403048Y-14972190D01*
X10412571Y-14981714D01*
X10422095Y-15000762D01*
X10422095Y-15048381D01*
X10412571Y-15067428D01*
X10403048Y-15076952D01*
X10384000Y-15086476D01*
X10336381Y-15086476D01*
X10317333Y-15076952D01*
X10307810Y-15067428D01*
X10545905Y-14886476D02*
X10564952Y-14886476D01*
X10584000Y-14896000D01*
X10593524Y-14905524D01*
X10603048Y-14924571D01*
X10612571Y-14962667D01*
X10612571Y-15010286D01*
X10603048Y-15048381D01*
X10593524Y-15067428D01*
X10584000Y-15076952D01*
X10564952Y-15086476D01*
X10545905Y-15086476D01*
X10526857Y-15076952D01*
X10517333Y-15067428D01*
X10507810Y-15048381D01*
X10498286Y-15010286D01*
X10498286Y-14962667D01*
X10507810Y-14924571D01*
X10517333Y-14905524D01*
X10526857Y-14896000D01*
X10545905Y-14886476D01*
X10736381Y-14886476D02*
X10755429Y-14886476D01*
X10774476Y-14896000D01*
X10784000Y-14905524D01*
X10793524Y-14924571D01*
X10803048Y-14962667D01*
X10803048Y-15010286D01*
X10793524Y-15048381D01*
X10784000Y-15067428D01*
X10774476Y-15076952D01*
X10755429Y-15086476D01*
X10736381Y-15086476D01*
X10717333Y-15076952D01*
X10707810Y-15067428D01*
X10698286Y-15048381D01*
X10688762Y-15010286D01*
X10688762Y-14962667D01*
X10698286Y-14924571D01*
X10707810Y-14905524D01*
X10717333Y-14896000D01*
X10736381Y-14886476D01*
X10888762Y-15086476D02*
X10888762Y-14953143D01*
X10888762Y-14972190D02*
X10898286Y-14962667D01*
X10917333Y-14953143D01*
X10945905Y-14953143D01*
X10964952Y-14962667D01*
X10974476Y-14981714D01*
X10974476Y-15086476D01*
X10974476Y-14981714D02*
X10984000Y-14962667D01*
X11003048Y-14953143D01*
X11031619Y-14953143D01*
X11050667Y-14962667D01*
X11060190Y-14981714D01*
X11060190Y-15086476D01*
X11155429Y-15086476D02*
X11155429Y-14953143D01*
X11155429Y-14972190D02*
X11164952Y-14962667D01*
X11184000Y-14953143D01*
X11212571Y-14953143D01*
X11231619Y-14962667D01*
X11241143Y-14981714D01*
X11241143Y-15086476D01*
X11241143Y-14981714D02*
X11250667Y-14962667D01*
X11269714Y-14953143D01*
X11298286Y-14953143D01*
X11317333Y-14962667D01*
X11326857Y-14981714D01*
X11326857Y-15086476D01*
X11717333Y-14876952D02*
X11545905Y-15134095D01*
X11974476Y-14886476D02*
X11993524Y-14886476D01*
X12012571Y-14896000D01*
X12022095Y-14905524D01*
X12031619Y-14924571D01*
X12041143Y-14962667D01*
X12041143Y-15010286D01*
X12031619Y-15048381D01*
X12022095Y-15067428D01*
X12012571Y-15076952D01*
X11993524Y-15086476D01*
X11974476Y-15086476D01*
X11955428Y-15076952D01*
X11945905Y-15067428D01*
X11936381Y-15048381D01*
X11926857Y-15010286D01*
X11926857Y-14962667D01*
X11936381Y-14924571D01*
X11945905Y-14905524D01*
X11955428Y-14896000D01*
X11974476Y-14886476D01*
X12126857Y-15067428D02*
X12136381Y-15076952D01*
X12126857Y-15086476D01*
X12117333Y-15076952D01*
X12126857Y-15067428D01*
X12126857Y-15086476D01*
X12260190Y-14886476D02*
X12279238Y-14886476D01*
X12298286Y-14896000D01*
X12307809Y-14905524D01*
X12317333Y-14924571D01*
X12326857Y-14962667D01*
X12326857Y-15010286D01*
X12317333Y-15048381D01*
X12307809Y-15067428D01*
X12298286Y-15076952D01*
X12279238Y-15086476D01*
X12260190Y-15086476D01*
X12241143Y-15076952D01*
X12231619Y-15067428D01*
X12222095Y-15048381D01*
X12212571Y-15010286D01*
X12212571Y-14962667D01*
X12222095Y-14924571D01*
X12231619Y-14905524D01*
X12241143Y-14896000D01*
X12260190Y-14886476D01*
X12507809Y-14886476D02*
X12412571Y-14886476D01*
X12403048Y-14981714D01*
X12412571Y-14972190D01*
X12431619Y-14962667D01*
X12479238Y-14962667D01*
X12498286Y-14972190D01*
X12507809Y-14981714D01*
X12517333Y-15000762D01*
X12517333Y-15048381D01*
X12507809Y-15067428D01*
X12498286Y-15076952D01*
X12479238Y-15086476D01*
X12431619Y-15086476D01*
X12412571Y-15076952D01*
X12403048Y-15067428D01*
X12612571Y-15086476D02*
X12650667Y-15086476D01*
X12669714Y-15076952D01*
X12679238Y-15067428D01*
X12698286Y-15038857D01*
X12707809Y-15000762D01*
X12707809Y-14924571D01*
X12698286Y-14905524D01*
X12688762Y-14896000D01*
X12669714Y-14886476D01*
X12631619Y-14886476D01*
X12612571Y-14896000D01*
X12603048Y-14905524D01*
X12593524Y-14924571D01*
X12593524Y-14972190D01*
X12603048Y-14991238D01*
X12612571Y-15000762D01*
X12631619Y-15010286D01*
X12669714Y-15010286D01*
X12688762Y-15000762D01*
X12698286Y-14991238D01*
X12707809Y-14972190D01*
X12898286Y-15086476D02*
X12784000Y-15086476D01*
X12841143Y-15086476D02*
X12841143Y-14886476D01*
X12822095Y-14915048D01*
X12803048Y-14934095D01*
X12784000Y-14943619D01*
X12974476Y-14886476D02*
X12974476Y-14924571D01*
X13050667Y-14886476D02*
X13050667Y-14924571D01*
X13345905Y-15162667D02*
X13336381Y-15153143D01*
X13317333Y-15124571D01*
X13307809Y-15105524D01*
X13298286Y-15076952D01*
X13288762Y-15029333D01*
X13288762Y-14991238D01*
X13298286Y-14943619D01*
X13307809Y-14915048D01*
X13317333Y-14896000D01*
X13336381Y-14867428D01*
X13345905Y-14857905D01*
X13412571Y-14905524D02*
X13422095Y-14896000D01*
X13441143Y-14886476D01*
X13488762Y-14886476D01*
X13507809Y-14896000D01*
X13517333Y-14905524D01*
X13526857Y-14924571D01*
X13526857Y-14943619D01*
X13517333Y-14972190D01*
X13403048Y-15086476D01*
X13526857Y-15086476D01*
X13764952Y-15086476D02*
X13764952Y-14886476D01*
X13850667Y-15086476D02*
X13850667Y-14981714D01*
X13841143Y-14962667D01*
X13822095Y-14953143D01*
X13793524Y-14953143D01*
X13774476Y-14962667D01*
X13764952Y-14972190D01*
X13974476Y-15086476D02*
X13955428Y-15076952D01*
X13945905Y-15067428D01*
X13936381Y-15048381D01*
X13936381Y-14991238D01*
X13945905Y-14972190D01*
X13955428Y-14962667D01*
X13974476Y-14953143D01*
X14003048Y-14953143D01*
X14022095Y-14962667D01*
X14031619Y-14972190D01*
X14041143Y-14991238D01*
X14041143Y-15048381D01*
X14031619Y-15067428D01*
X14022095Y-15076952D01*
X14003048Y-15086476D01*
X13974476Y-15086476D01*
X14155428Y-15086476D02*
X14136381Y-15076952D01*
X14126857Y-15057905D01*
X14126857Y-14886476D01*
X14307809Y-15076952D02*
X14288762Y-15086476D01*
X14250667Y-15086476D01*
X14231619Y-15076952D01*
X14222095Y-15057905D01*
X14222095Y-14981714D01*
X14231619Y-14962667D01*
X14250667Y-14953143D01*
X14288762Y-14953143D01*
X14307809Y-14962667D01*
X14317333Y-14981714D01*
X14317333Y-15000762D01*
X14222095Y-15019809D01*
X14393524Y-15076952D02*
X14412571Y-15086476D01*
X14450667Y-15086476D01*
X14469714Y-15076952D01*
X14479238Y-15057905D01*
X14479238Y-15048381D01*
X14469714Y-15029333D01*
X14450667Y-15019809D01*
X14422095Y-15019809D01*
X14403048Y-15010286D01*
X14393524Y-14991238D01*
X14393524Y-14981714D01*
X14403048Y-14962667D01*
X14422095Y-14953143D01*
X14450667Y-14953143D01*
X14469714Y-14962667D01*
X14545905Y-15162667D02*
X14555428Y-15153143D01*
X14574476Y-15124571D01*
X14584000Y-15105524D01*
X14593524Y-15076952D01*
X14603048Y-15029333D01*
X14603048Y-14991238D01*
X14593524Y-14943619D01*
X14584000Y-14915048D01*
X14574476Y-14896000D01*
X14555428Y-14867428D01*
X14545905Y-14857905D01*
X14907809Y-15162667D02*
X14898286Y-15153143D01*
X14879238Y-15124571D01*
X14869714Y-15105524D01*
X14860190Y-15076952D01*
X14850667Y-15029333D01*
X14850667Y-14991238D01*
X14860190Y-14943619D01*
X14869714Y-14915048D01*
X14879238Y-14896000D01*
X14898286Y-14867428D01*
X14907809Y-14857905D01*
X14984000Y-14953143D02*
X14984000Y-15086476D01*
X14984000Y-14972190D02*
X14993524Y-14962667D01*
X15012571Y-14953143D01*
X15041143Y-14953143D01*
X15060190Y-14962667D01*
X15069714Y-14981714D01*
X15069714Y-15086476D01*
X15193524Y-15086476D02*
X15174476Y-15076952D01*
X15164952Y-15067428D01*
X15155428Y-15048381D01*
X15155428Y-14991238D01*
X15164952Y-14972190D01*
X15174476Y-14962667D01*
X15193524Y-14953143D01*
X15222095Y-14953143D01*
X15241143Y-14962667D01*
X15250667Y-14972190D01*
X15260190Y-14991238D01*
X15260190Y-15048381D01*
X15250667Y-15067428D01*
X15241143Y-15076952D01*
X15222095Y-15086476D01*
X15193524Y-15086476D01*
X15317333Y-14953143D02*
X15393524Y-14953143D01*
X15345905Y-14886476D02*
X15345905Y-15057905D01*
X15355428Y-15076952D01*
X15374476Y-15086476D01*
X15393524Y-15086476D01*
X15612571Y-14953143D02*
X15612571Y-15153143D01*
X15612571Y-14962667D02*
X15631619Y-14953143D01*
X15669714Y-14953143D01*
X15688762Y-14962667D01*
X15698286Y-14972190D01*
X15707809Y-14991238D01*
X15707809Y-15048381D01*
X15698286Y-15067428D01*
X15688762Y-15076952D01*
X15669714Y-15086476D01*
X15631619Y-15086476D01*
X15612571Y-15076952D01*
X15822095Y-15086476D02*
X15803048Y-15076952D01*
X15793524Y-15057905D01*
X15793524Y-14886476D01*
X15984000Y-15086476D02*
X15984000Y-14981714D01*
X15974476Y-14962667D01*
X15955428Y-14953143D01*
X15917333Y-14953143D01*
X15898286Y-14962667D01*
X15984000Y-15076952D02*
X15964952Y-15086476D01*
X15917333Y-15086476D01*
X15898286Y-15076952D01*
X15888762Y-15057905D01*
X15888762Y-15038857D01*
X15898286Y-15019809D01*
X15917333Y-15010286D01*
X15964952Y-15010286D01*
X15984000Y-15000762D01*
X16050667Y-14953143D02*
X16126857Y-14953143D01*
X16079238Y-14886476D02*
X16079238Y-15057905D01*
X16088762Y-15076952D01*
X16107809Y-15086476D01*
X16126857Y-15086476D01*
X16269714Y-15076952D02*
X16250667Y-15086476D01*
X16212571Y-15086476D01*
X16193524Y-15076952D01*
X16184000Y-15057905D01*
X16184000Y-14981714D01*
X16193524Y-14962667D01*
X16212571Y-14953143D01*
X16250667Y-14953143D01*
X16269714Y-14962667D01*
X16279238Y-14981714D01*
X16279238Y-15000762D01*
X16184000Y-15019809D01*
X16450667Y-15086476D02*
X16450667Y-14886476D01*
X16450667Y-15076952D02*
X16431619Y-15086476D01*
X16393524Y-15086476D01*
X16374476Y-15076952D01*
X16364952Y-15067428D01*
X16355428Y-15048381D01*
X16355428Y-14991238D01*
X16364952Y-14972190D01*
X16374476Y-14962667D01*
X16393524Y-14953143D01*
X16431619Y-14953143D01*
X16450667Y-14962667D01*
X16526857Y-15162667D02*
X16536381Y-15153143D01*
X16555428Y-15124571D01*
X16564952Y-15105524D01*
X16574476Y-15076952D01*
X16584000Y-15029333D01*
X16584000Y-14991238D01*
X16574476Y-14943619D01*
X16564952Y-14915048D01*
X16555428Y-14896000D01*
X16536381Y-14867428D01*
X16526857Y-14857905D01*
M02*
