G04 #@! TF.GenerationSoftware,KiCad,Pcbnew,6.0.9-8da3e8f707~116~ubuntu20.04.1*
G04 #@! TF.CreationDate,2022-12-17T22:04:31+01:00*
G04 #@! TF.ProjectId,pcm_pmod,70636d5f-706d-46f6-942e-6b696361645f,rev?*
G04 #@! TF.SameCoordinates,Original*
G04 #@! TF.FileFunction,Soldermask,Top*
G04 #@! TF.FilePolarity,Negative*
%FSLAX46Y46*%
G04 Gerber Fmt 4.6, Leading zero omitted, Abs format (unit mm)*
G04 Created by KiCad (PCBNEW 6.0.9-8da3e8f707~116~ubuntu20.04.1) date 2022-12-17 22:04:31*
%MOMM*%
%LPD*%
G01*
G04 APERTURE LIST*
G04 Aperture macros list*
%AMRoundRect*
0 Rectangle with rounded corners*
0 $1 Rounding radius*
0 $2 $3 $4 $5 $6 $7 $8 $9 X,Y pos of 4 corners*
0 Add a 4 corners polygon primitive as box body*
4,1,4,$2,$3,$4,$5,$6,$7,$8,$9,$2,$3,0*
0 Add four circle primitives for the rounded corners*
1,1,$1+$1,$2,$3*
1,1,$1+$1,$4,$5*
1,1,$1+$1,$6,$7*
1,1,$1+$1,$8,$9*
0 Add four rect primitives between the rounded corners*
20,1,$1+$1,$2,$3,$4,$5,0*
20,1,$1+$1,$4,$5,$6,$7,0*
20,1,$1+$1,$6,$7,$8,$9,0*
20,1,$1+$1,$8,$9,$2,$3,0*%
G04 Aperture macros list end*
%ADD10RoundRect,0.237500X-0.237500X0.250000X-0.237500X-0.250000X0.237500X-0.250000X0.237500X0.250000X0*%
%ADD11RoundRect,0.237500X0.237500X-0.250000X0.237500X0.250000X-0.237500X0.250000X-0.237500X-0.250000X0*%
%ADD12C,1.500000*%
%ADD13R,1.200000X2.500000*%
%ADD14R,1.700000X1.700000*%
%ADD15C,1.700000*%
%ADD16RoundRect,0.237500X-0.300000X-0.237500X0.300000X-0.237500X0.300000X0.237500X-0.300000X0.237500X0*%
%ADD17O,1.700000X1.700000*%
G04 APERTURE END LIST*
D10*
X106045000Y-71200000D03*
X106045000Y-73025000D03*
D11*
X100965000Y-73025000D03*
X100965000Y-71200000D03*
X103505000Y-73025000D03*
X103505000Y-71200000D03*
D12*
X116525000Y-137160000D03*
X109525000Y-137160000D03*
D13*
X114125000Y-133910000D03*
X111125000Y-133910000D03*
X119225000Y-140410000D03*
X118125000Y-133910000D03*
D14*
X101600000Y-87630000D03*
D15*
X101600000Y-90170000D03*
X101600000Y-92710000D03*
X101600000Y-95250000D03*
X101600000Y-97790000D03*
X101600000Y-100330000D03*
X127000000Y-100330000D03*
X127000000Y-97790000D03*
X127000000Y-95250000D03*
X127000000Y-92710000D03*
X127000000Y-90170000D03*
X127000000Y-87630000D03*
X116840000Y-77978000D03*
X114300000Y-77978000D03*
X111760000Y-77978000D03*
D16*
X106071500Y-113792000D03*
X107796500Y-113792000D03*
D14*
X115570000Y-71120000D03*
D17*
X115570000Y-68580000D03*
X118110000Y-71120000D03*
X118110000Y-68580000D03*
X120650000Y-71120000D03*
X120650000Y-68580000D03*
X123190000Y-71120000D03*
X123190000Y-68580000D03*
X125730000Y-71120000D03*
X125730000Y-68580000D03*
X128270000Y-71120000D03*
X128270000Y-68580000D03*
D14*
X118595000Y-120142000D03*
D15*
X118595000Y-122682000D03*
X118595000Y-125222000D03*
X126215000Y-125222000D03*
X126215000Y-122682000D03*
X126215000Y-120142000D03*
D14*
X102235000Y-120142000D03*
D15*
X102235000Y-122682000D03*
X102235000Y-125222000D03*
X109855000Y-125222000D03*
X109855000Y-122682000D03*
X109855000Y-120142000D03*
D14*
X125730000Y-138430000D03*
D17*
X125730000Y-135890000D03*
M02*
